<svg xmlns="http://www.w3.org/2000/svg" width="45" height="46" viewBox="0 0 45 46" fill="none">
  <path class="fill-brand-400 stroke-brand-50 dark:fill-brand-600 dark:stroke-brand-950" d="M11.7914 2.67334H34.9447C39.9461 2.67348 44.0355 6.75006 44.0355 11.7231V35.6616C44.0354 40.6347 39.946 44.7113 34.9447 44.7114H11.7914C6.79026 44.7114 2.70071 40.6349 2.70056 35.6616V11.7231C2.70056 6.74994 6.78995 2.67341 11.7914 2.67334Z" fill="#69A0A7" stroke="#F3F8F8" stroke-width="1.33333"/>
  <path class="fill-brand-50 dark:fill-brand-950" d="M22.5465 28.3798L22.6749 28.3371C23.4025 28.2085 24.0447 27.9083 24.4726 27.5225C25.1145 26.9224 25.457 26.0651 25.457 24.9076C25.457 24.2647 24.0445 23.7073 22.6319 23.493L22.5035 23.4502L22.5038 28.3798L22.5465 28.3798Z" fill="#F3F8F8"/>
  <path class="fill-brand-50 dark:fill-brand-950" d="M17.8381 16.2485C17.2815 16.8914 17.0678 17.6631 17.1962 18.6063C17.3672 19.8493 18.7798 20.4067 19.9355 20.6638L20.1066 20.7066V14.9624L19.9355 15.0052C19.2933 15.1768 18.4373 15.5628 17.8381 16.2485L17.8381 16.2485Z" fill="#F3F8F8"/>
  <path class="fill-brand-50 dark:fill-brand-950" d="M32.5194 0.730469H10.1765C4.99729 0.730469 0.76001 4.97444 0.76001 10.1614V33.3956C0.76001 38.5828 4.99752 42.8265 10.1765 42.8265H32.5194C37.6986 42.8265 41.9359 38.5825 41.9359 33.3956V10.1614C41.9359 4.97452 37.6986 0.730469 32.5194 0.730469ZM22.632 21.0497C24.6011 21.3069 27.8967 22.1642 27.8967 24.9508C27.8967 26.7939 27.2547 28.3372 26.099 29.3661C24.9432 30.395 23.5737 30.7381 22.632 30.8236H22.5037V33.4813H20.0638V30.6519L19.9781 30.6092C14.7562 29.4517 14.7562 24.865 14.7562 24.8219V24.3931L17.1961 24.4358V24.8646C17.1961 24.9505 17.2388 27.1793 19.9354 28.0797L20.1065 28.1225L20.1068 23.2359H20.0211C18.2234 22.8929 15.1844 21.9071 14.7992 18.9919C14.5851 17.3201 15.0133 15.8626 16.0403 14.6623C16.982 13.6334 18.4372 12.8192 20.0638 12.519H20.1495V10.1185H22.5894V12.4762H22.6751C26.4418 13.1191 27.7687 16.8488 27.9397 18.7351L27.9824 19.1639L25.5425 19.421L25.4998 18.9922C25.4998 18.8637 25.1574 15.82 22.7178 15.0057L22.5468 14.9629V21.0929L22.632 21.0497Z" fill="#F3F8F8"/>
</svg>