<svg xmlns="http://www.w3.org/2000/svg" width="58" height="55" viewBox="0 0 58 55" fill="none">
  <path class="fill-brand-200 dark:fill-brand-800" d="M29.8657 40.0869H14.0183C13.7687 40.0869 13.572 40.2852 13.572 40.5379C13.572 40.7902 13.7682 40.9889 14.0183 40.9889H29.8657C30.1153 40.9889 30.312 40.7906 30.312 40.5379C30.312 40.2852 30.1158 40.0869 29.8657 40.0869Z" fill="#C3DCDE"/>
  <path class="fill-brand-200 dark:fill-brand-800" d="M29.8657 43.2334H14.0183C13.7687 43.2334 13.572 43.4317 13.572 43.6844C13.572 43.9366 13.7682 44.1354 14.0183 44.1354H29.8657C30.1153 44.1354 30.312 43.9371 30.312 43.6844C30.312 43.4317 30.1158 43.2334 29.8657 43.2334Z" fill="#C3DCDE"/>
  <path class="fill-brand-200 dark:fill-brand-800" d="M56.3046 29.781C53.8865 29.5013 51.62 28.7353 49.4339 27.4731V24.669C49.4339 22.7934 48.1668 21.2338 46.4535 20.7651L46.4539 4.51727C46.4539 2.02868 44.4462 0 41.9834 0H9.99396C7.53114 0 5.52346 2.02868 5.52346 4.51727V7.88919L4.02421 7.88966C1.80228 7.88966 0 9.71079 0 11.9471V45.9655C0 48.5532 2.08786 50.654 4.64879 50.654H38.4765C39.3687 51.4927 40.3502 52.25 41.4123 52.9173L44.2767 54.7026C44.589 54.9009 44.9372 55 45.2849 55C45.6331 55 45.9809 54.9009 46.2844 54.7114L49.1663 52.9172C54.6985 49.4639 58 43.468 58 36.8946V31.7011C58 30.7181 57.2773 29.8888 56.3046 29.7803L56.3046 29.781ZM42.3309 12.9387V17.5099C42.3309 18.1592 41.8132 18.6818 41.1711 18.6818H32.2927C31.6502 18.6818 31.133 18.1587 31.133 17.5099V12.9387C31.133 12.2894 31.6507 11.7575 32.2927 11.7575H41.1711C41.8137 11.7575 42.3309 12.2894 42.3309 12.9387V12.9387ZM13.7857 5.14814C13.7857 4.48074 14.3121 3.94883 14.9726 3.94883H37.0032C37.6637 3.94883 38.1989 4.48078 38.1989 5.14814V8.6373C38.1989 9.29539 37.6637 9.83662 37.0032 9.83662H14.9726C14.3121 9.83662 13.7857 9.29581 13.7857 8.6373V5.14814ZM10.9125 12.1269H28.2054C28.6964 12.1269 29.0976 12.5328 29.0976 13.0284C29.0976 13.5246 28.696 13.9299 28.2054 13.9299L10.9125 13.9304C10.4215 13.9304 10.0203 13.5246 10.0203 13.0289C10.0203 12.5328 10.4215 12.1269 10.9125 12.1269V12.1269ZM10.9125 16.8788H28.2054C28.6964 16.8788 29.0976 17.2846 29.0976 17.7803C29.0976 18.2764 28.696 18.6818 28.2054 18.6818H10.9125C10.4215 18.6818 10.0203 18.276 10.0203 17.7803C10.0203 17.2842 10.4215 16.8788 10.9125 16.8788V16.8788ZM4.63052 49.7521H4.62177C2.5694 49.7433 0.891869 48.0482 0.891869 45.9651V11.9468C0.891869 10.2067 2.30174 8.79088 4.02384 8.79088H5.52309V40.2488C5.52309 42.1062 6.68286 43.7743 8.37832 44.4412V45.965C8.37832 48.0571 6.69206 49.752 4.6305 49.752L4.63052 49.7521ZM7.36136 49.7521C8.51238 48.8958 9.27094 47.5163 9.27094 45.9651V44.1076V44.0895L9.27048 24.6688C9.27048 22.9287 10.6716 21.5129 12.4024 21.5129H45.4177C47.1398 21.5129 48.541 22.9287 48.541 24.6688V26.9321C47.845 26.4811 47.1579 25.9855 46.4706 25.4354C45.7834 24.8765 44.7843 24.8765 44.0879 25.4354C41.0186 27.9509 37.8059 29.3755 34.2727 29.7815C33.3004 29.8894 32.5685 30.7188 32.5685 31.7017V36.8953C32.5685 41.7639 34.3889 46.3175 37.5742 49.7522L7.36136 49.7521ZM54.9034 36.8952C54.9034 42.3773 52.1462 47.3721 47.5329 50.2573L45.2844 51.6549L43.0358 50.2573C38.4225 47.3722 35.6654 42.3769 35.6654 36.8952V32.7475C39.1097 32.1704 42.2597 30.7728 45.2844 28.4737C48.309 30.7728 51.459 32.1704 54.9034 32.7475V36.8952Z" fill="#C3DCDE"/>
  <path class="fill-brand-500 dark:fill-brand-500" d="M41.7782 37.599C41.7782 38.7439 42.3314 39.8078 43.2328 40.457L42.2245 44.0453C42.1891 44.1807 42.2158 44.325 42.2959 44.433C42.3853 44.5503 42.5101 44.6131 42.6529 44.6131H47.9174C48.0602 44.6131 48.1942 44.5498 48.2743 44.433C48.3637 44.325 48.3904 44.1807 48.3457 44.0453L47.3462 40.457C48.2476 39.8078 48.7916 38.7438 48.7916 37.599C48.7916 35.6335 47.221 34.0376 45.2847 34.0376C43.3488 34.0371 41.7782 35.6331 41.7782 37.599H41.7782Z" fill="#4F868E"/>
</svg>