<svg xmlns="http://www.w3.org/2000/svg" width="67" height="66" viewBox="0 0 67 66" fill="none">
  <path class="fill-brand-200 dark:fill-brand-800" d="M62.9126 0.0361328H20.2662C18.5219 0.0361328 17.0932 1.45305 17.0932 3.21395V23.2012H3.33068C1.58635 23.2012 0.158264 24.6321 0.158264 26.3923V54.2482C0.158264 55.9952 1.58692 57.4261 3.33124 57.4261H8.26178V63.3409C8.26178 64.3866 8.85246 65.2943 9.79983 65.7066C10.1432 65.8441 10.4867 65.9265 10.844 65.9265C11.4758 65.9265 12.0937 65.6927 12.5883 65.2386L21.0763 57.4255H46.0049C47.7493 57.4255 49.1779 55.9946 49.1779 54.2477L49.1774 37.9205L53.6823 42.061C54.6714 42.8451 55.4404 42.9553 56.4568 42.5424C57.432 42.1572 57.9949 41.2078 57.9949 40.1627V34.2478H62.9254C64.6697 34.2478 66.0984 32.8309 66.0984 31.07L66.0989 3.21406C66.085 1.45326 64.6569 0.0362469 62.9127 0.0362469L62.9126 0.0361328ZM23.218 20.8483C22.7923 20.8483 22.4489 20.5044 22.4489 20.0781C22.4489 19.6518 22.7923 19.3079 23.218 19.3079H59.9452C60.3708 19.3079 60.7142 19.6518 60.7142 20.0781C60.7142 20.5044 60.3708 20.8483 59.9452 20.8483H23.218ZM22.4489 14.2045C22.4489 13.7782 22.7923 13.4342 23.218 13.4342H59.9452C60.3708 13.4342 60.7142 13.7782 60.7142 14.2045C60.7142 14.6308 60.3708 14.9747 59.9452 14.9747H23.218C22.7923 14.9747 22.4489 14.6307 22.4489 14.2045ZM59.9457 9.11496H23.2185C22.7929 9.11496 22.4494 8.77102 22.4494 8.34474C22.4494 7.91845 22.7929 7.57451 23.2185 7.57451H59.9457C60.3714 7.57451 60.7148 7.91845 60.7148 8.34474C60.7148 8.77102 60.3852 9.11496 59.9457 9.11496ZM47.6252 54.2341C47.6252 55.1418 46.8973 55.8708 45.991 55.8708H20.7594C20.5671 55.8708 20.3748 55.9399 20.2376 56.0773L11.5295 64.0969C11.2272 64.3857 10.8015 64.4547 10.417 64.2894C10.0325 64.1108 9.79908 63.7669 9.79908 63.3266V56.6277C9.79908 56.2014 9.45566 55.8574 9.03002 55.8574H3.32989C2.42358 55.8574 1.69568 55.1284 1.69568 54.2207V26.3918C1.69568 25.4841 2.42362 24.7551 3.32989 24.7551H45.9763C46.8826 24.7551 47.6105 25.4842 47.6105 26.3918L47.6111 54.2335L47.6252 54.2341ZM48.9166 25.1544H59.9457C60.3714 25.1544 60.7148 25.4983 60.7148 25.9246C60.7148 26.3509 60.3714 26.6948 59.9457 26.6948H49.1638L48.9166 25.1544Z" fill="#C3DCDE"/>
  <path class="fill-brand-500 dark:fill-brand-500" d="M38.4651 38.1409L34.4959 31.1531H34.7571C35.1827 31.1531 35.5261 30.8091 35.5261 30.3828C35.5261 29.9565 35.1827 29.6126 34.7571 29.6126L25.4306 29.6121V28.154C25.4306 27.7277 25.0872 27.3838 24.6615 27.3838C24.2359 27.3838 23.8925 27.7277 23.8925 28.154V29.6121H14.5664C14.1408 29.6121 13.7974 29.956 13.7974 30.3823C13.7974 30.8086 14.1408 31.1525 14.5664 31.1525H14.8276L10.8716 38.1403C10.7755 38.2778 10.7755 38.5254 10.7755 38.5254C10.7755 40.2312 11.3662 41.6893 12.4648 42.721C13.4539 43.6287 14.772 44.138 16.1596 44.138C18.8379 44.138 21.5436 42.2123 21.5436 38.5393C21.5436 38.3606 21.4475 38.1681 21.4475 38.1542L17.4915 31.1664H23.9058V48.4709C21.9142 48.7186 20.1561 49.929 19.1808 51.7037H15.6372C15.2116 51.7037 14.8682 52.0477 14.8682 52.474C14.8682 52.9003 15.2116 53.2442 15.6372 53.2442H33.7121C34.1377 53.2442 34.4811 52.9003 34.4811 52.474C34.4811 52.0477 34.1377 51.7037 33.7121 51.7037H30.1685C29.2072 49.9156 27.449 48.7185 25.4435 48.4709L25.4441 31.1536H31.8583L27.9024 38.1413C27.8062 38.2927 27.8062 38.5265 27.8062 38.5265C27.8062 40.3697 28.4792 41.7727 29.5095 42.7083C30.5119 43.6438 31.8584 44.1252 33.2042 44.1252C35.8826 44.1252 38.5883 42.1995 38.5883 38.5265C38.561 38.389 38.4649 38.1553 38.4649 38.1414L38.4651 38.1409ZM19.4428 37.7696H12.8636L16.1599 31.9511L19.4428 37.7696ZM33.1776 31.9506L36.4739 37.7691H29.8947L33.1776 31.9506Z" fill="#4F868E"/>
</svg>