<svg xmlns="http://www.w3.org/2000/svg" width="48" height="48" viewBox="0 0 48 48" fill="none">
  <path class="fill-brand-400 dark:fill-brand-600" d="M37.5879 14.7886C37.9238 14.7886 38.1962 14.5163 38.1962 14.1793L38.1958 13.3177C38.1958 12.9813 37.9238 12.7085 37.5874 12.7085C37.2515 12.7085 36.9791 12.9808 36.9791 13.3177V14.1798C36.9796 14.5163 37.2515 14.7886 37.5879 14.7886H37.5879Z" fill="#69A0A7"/>
  <path class="fill-brand-400 dark:fill-brand-600" d="M33.9171 24.0223C33.9171 24.3587 34.189 24.6315 34.5254 24.6315H36.2087C37.3044 24.6315 38.1957 23.7389 38.1957 22.6415L38.1953 17.3529C38.1953 17.0164 37.9233 16.7437 37.5869 16.7437C37.251 16.7437 36.9786 17.016 36.9786 17.3529V22.641C36.9786 23.0667 36.6329 23.413 36.2078 23.413H34.5246C34.189 23.413 33.9171 23.6858 33.9171 24.0222V24.0223Z" fill="#69A0A7"/>
  <path class="fill-brand-400 dark:fill-brand-600" d="M31.3697 9.06274C31.3697 9.93411 30.6643 10.6407 29.7942 10.6407C28.9237 10.6407 28.2183 9.93413 28.2183 9.06274C28.2183 8.19094 28.9237 7.48438 29.7942 7.48438C30.6643 7.48438 31.3697 8.19091 31.3697 9.06274Z" fill="#69A0A7"/>
  <path class="fill-brand-400 dark:fill-brand-600" d="M27.102 13.6738V14.5065H26.7219C26.3859 14.5065 26.1135 14.7788 26.1135 15.1157V16.8789C26.1135 17.2154 26.3855 17.4881 26.7219 17.4881H27.102V18.9722H26.7219C26.3859 18.9722 26.1135 19.2445 26.1135 19.5814V21.3475C26.1135 21.684 26.3855 21.9568 26.7219 21.9568H27.102V22.2125C27.102 22.5337 27.2432 22.8341 27.4943 23.041L29.1941 24.4108C29.3905 24.5684 29.6272 24.6461 29.8622 24.6461C30.11 24.6461 30.3556 24.5586 30.5507 24.387L32.1232 23.0249C32.3548 22.8223 32.4872 22.5296 32.4872 22.222L32.4876 13.6671C34.1241 12.71 35.1338 10.9867 35.1338 9.06432C35.1338 6.11545 32.7379 3.71582 29.793 3.71582C28.679 3.71582 27.6134 4.05485 26.7166 4.69426C26.2093 5.05113 25.7758 5.48533 25.4309 5.9807C24.935 6.68298 24.6126 7.50468 24.4997 8.35346C24.4688 8.57524 24.4526 8.81443 24.4526 9.06425C24.4526 9.32595 24.4692 9.56132 24.5018 9.77035C24.7169 11.4111 25.6815 12.8382 27.1018 13.6739L27.102 13.6738ZM31.2711 22.1517L29.8547 23.3782L28.3182 22.1406V21.347C28.3182 21.0105 28.0463 20.7378 27.7099 20.7378H27.3298V20.1901H27.7099C28.0459 20.1901 28.3182 19.9178 28.3182 19.5809V16.8788C28.3182 16.5423 28.0463 16.2695 27.7099 16.2695H27.3298V15.7249H27.7099C28.0459 15.7249 28.3182 15.4525 28.3182 15.1156V14.206C28.3539 14.2162 28.3908 14.2196 28.4264 14.229C28.588 14.2719 28.7514 14.3054 28.9164 14.3326C28.9783 14.3428 29.0394 14.3564 29.1017 14.3645C29.33 14.3942 29.5599 14.4129 29.7928 14.4129C30.0282 14.4129 30.2603 14.3938 30.4898 14.3641C30.5538 14.3556 30.6157 14.342 30.6794 14.3313C30.8418 14.3042 31.003 14.271 31.1621 14.2285C31.1978 14.2192 31.2355 14.2158 31.2711 14.2052L31.2711 22.1517ZM25.7046 8.51835C25.792 7.86067 26.0406 7.22636 26.4262 6.6808C26.6922 6.29844 27.0248 5.96535 27.4184 5.68877C28.1116 5.19509 28.9328 4.93381 29.7927 4.93381C32.0668 4.93381 33.9172 6.78658 33.9172 9.06428C33.9172 10.652 33.0336 12.0722 31.6099 12.7724C30.7611 13.1918 29.7863 13.298 28.8696 13.0894C28.5638 13.0197 28.2638 12.9143 27.9766 12.7741C27.9762 12.7737 27.9754 12.7737 27.975 12.7737C26.7341 12.1585 25.8866 10.977 25.7058 9.59882C25.6808 9.43822 25.6689 9.26319 25.6689 9.06478C25.6689 8.87105 25.6808 8.68921 25.7045 8.51842L25.7046 8.51835Z" fill="#69A0A7"/>
  <path class="fill-brand-400 dark:fill-brand-600" d="M46.5288 1.80211C45.8085 1.07986 44.8507 0.682617 43.8326 0.682617H22.1632C20.0604 0.682617 18.35 2.39563 18.35 4.50159V14.5949H10.4008C8.04133 14.5949 6.12144 16.5173 6.12144 18.8803V21.1227C6.12144 23.4858 8.04143 25.4081 10.4008 25.4081C12.09 25.4081 13.4636 26.7846 13.4636 28.476V29.301H1.42778C1.0918 29.301 0.819458 29.5734 0.819458 29.9103V46.5096C0.819458 46.8461 1.09137 47.1189 1.42778 47.1189H34.0905C36.7451 47.1189 38.9043 44.9563 38.9043 42.2976V29.9107C38.9043 29.5742 38.6324 29.3014 38.296 29.3014H14.6805V28.4764C14.6805 26.1133 12.761 24.1905 10.4016 24.1905C8.71239 24.1905 7.33842 22.8149 7.33842 21.1231V18.8807C7.33842 17.1889 8.71282 15.8133 10.4016 15.8133H18.3508V25.0657C18.3508 26.5055 19.5207 27.6769 20.9584 27.6769L38.6293 27.6773C40.0669 27.6773 41.2369 26.5059 41.2369 25.0661V7.35633H47.0388C47.3748 7.35633 47.6471 7.084 47.6471 6.74709V4.50213C47.6471 3.4829 47.2501 2.52395 46.5298 1.80264L46.5288 1.80211ZM9.23231 33.7772H9.80669C10.1427 33.7772 10.415 34.0495 10.415 34.3864C10.415 34.7229 10.1431 34.9957 9.80669 34.9957H9.23231C8.89633 34.9957 8.62399 34.7233 8.62399 34.3864C8.62441 34.0495 8.89633 33.7772 9.23231 33.7772ZM6.05585 33.7772H6.36001C6.69598 33.7772 6.96832 34.0495 6.96832 34.3864C6.96832 34.7229 6.69641 34.9957 6.36001 34.9957H6.05585C5.71987 34.9957 5.44753 34.7233 5.44753 34.3864C5.44753 34.0495 5.71945 33.7772 6.05585 33.7772ZM6.05585 37.6004H6.36001C6.69598 37.6004 6.96832 37.8727 6.96832 38.2096C6.96832 38.5461 6.69641 38.8189 6.36001 38.8189H6.05585C5.71987 38.8189 5.44753 38.5465 5.44753 38.2096C5.44753 37.8727 5.71945 37.6004 6.05585 37.6004ZM6.72864 42.6425H6.05585C5.71987 42.6425 5.44753 42.3702 5.44753 42.0333C5.44753 41.6968 5.71945 41.424 6.05585 41.424H6.72864C7.06462 41.424 7.33695 41.6964 7.33695 42.0333C7.33653 42.3702 7.06462 42.6425 6.72864 42.6425ZM8.62441 38.2096C8.62441 37.8731 8.89633 37.6003 9.23273 37.6003H9.80711C10.1431 37.6003 10.4154 37.8727 10.4154 38.2096C10.4154 38.5461 10.1435 38.8188 9.80711 38.8188H9.23273C8.89633 38.8184 8.62441 38.5461 8.62441 38.2096ZM33.3617 33.7771H33.6659C34.0018 33.7771 34.2742 34.0494 34.2742 34.3863C34.2742 34.7228 34.0023 34.9956 33.6659 34.9956H33.3617C33.0257 34.9956 32.7534 34.7232 32.7534 34.3863C32.7538 34.0494 33.0257 33.7771 33.3617 33.7771ZM33.3617 37.6003H33.6659C34.0018 37.6003 34.2742 37.8726 34.2742 38.2095C34.2742 38.546 34.0023 38.8188 33.6659 38.8188H33.3617C33.0257 38.8188 32.7534 38.5464 32.7534 38.2095C32.7538 37.8726 33.0257 37.6003 33.3617 37.6003ZM32.4543 41.4244H33.6658C34.0018 41.4244 34.2741 41.6967 34.2741 42.0336C34.2741 42.3701 34.0022 42.6429 33.6658 42.6429H32.4543C32.1183 42.6429 31.846 42.3705 31.846 42.0336C31.846 41.6967 32.1183 41.4244 32.4543 41.4244ZM29.915 33.7771H30.4894C30.8254 33.7771 31.0977 34.0494 31.0977 34.3863C31.0977 34.7228 30.8258 34.9956 30.4894 34.9956H29.915C29.579 34.9956 29.3067 34.7232 29.3067 34.3863C29.3067 34.0494 29.5786 33.7771 29.915 33.7771ZM29.915 37.6003H30.4894C30.8254 37.6003 31.0977 37.8726 31.0977 38.2095C31.0977 38.546 30.8258 38.8188 30.4894 38.8188H29.915C29.579 38.8188 29.3067 38.5464 29.3067 38.2095C29.3067 37.8726 29.5786 37.6003 29.915 37.6003ZM26.4679 33.7771H27.0423C27.3783 33.7771 27.6506 34.0494 27.6506 34.3863C27.6506 34.7228 27.3787 34.9956 27.0423 34.9956H26.4679C26.1319 34.9956 25.8596 34.7232 25.8596 34.3863C25.8596 34.0494 26.1319 33.7771 26.4679 33.7771ZM26.4679 37.6003H27.0423C27.3783 37.6003 27.6506 37.8726 27.6506 38.2095C27.6506 38.546 27.3787 38.8188 27.0423 38.8188H26.4679C26.1319 38.8188 25.8596 38.5464 25.8596 38.2095C25.8596 37.8726 26.1319 37.6003 26.4679 37.6003ZM23.0204 33.7771H23.5952C23.9312 33.7771 24.2035 34.0494 24.2035 34.3863C24.2035 34.7228 23.9316 34.9956 23.5952 34.9956H23.0204C22.6844 34.9956 22.4121 34.7232 22.4121 34.3863C22.4121 34.0494 22.6844 33.7771 23.0204 33.7771ZM23.0204 37.6003H23.5952C23.9312 37.6003 24.2035 37.8726 24.2035 38.2095C24.2035 38.546 23.9316 38.8188 23.5952 38.8188H23.0204C22.6844 38.8188 22.4121 38.5464 22.4121 38.2095C22.4121 37.8726 22.6844 37.6003 23.0204 37.6003ZM19.5733 33.7771H20.1477C20.4837 33.7771 20.756 34.0494 20.756 34.3863C20.756 34.7228 20.4841 34.9956 20.1477 34.9956H19.5733C19.2373 34.9956 18.965 34.7232 18.965 34.3863C18.9654 34.0494 19.2373 33.7771 19.5733 33.7771ZM19.5733 37.6003H20.1477C20.4837 37.6003 20.756 37.8726 20.756 38.2095C20.756 38.546 20.4841 38.8188 20.1477 38.8188H19.5733C19.2373 38.8188 18.965 38.5464 18.965 38.2095C18.9654 37.8726 19.2373 37.6003 19.5733 37.6003ZM16.1267 33.7771H16.701C17.037 33.7771 17.3094 34.0494 17.3094 34.3863C17.3094 34.7228 17.0374 34.9956 16.701 34.9956L16.1267 34.9951C15.7907 34.9951 15.5184 34.7228 15.5184 34.3859C15.5184 34.0494 15.7903 33.7771 16.1267 33.7771ZM16.1267 37.6003H16.701C17.037 37.6003 17.3094 37.8726 17.3094 38.2095C17.3094 38.546 17.0374 38.8188 16.701 38.8188L16.1267 38.8183C15.7907 38.8183 15.5184 38.546 15.5184 38.2091C15.5184 37.8726 15.7903 37.6003 16.1267 37.6003ZM29.5145 41.4244C29.8505 41.4244 30.1228 41.6967 30.1228 42.0336C30.1228 42.3701 29.8509 42.6429 29.5145 42.6429L10.1299 42.6424C9.79397 42.6424 9.52163 42.3701 9.52163 42.0332C9.52163 41.6967 9.79355 41.4239 10.1299 41.4239L29.5145 41.4244ZM12.0717 38.2095C12.0717 37.873 12.3436 37.6002 12.68 37.6002H13.2548C13.5908 37.6002 13.8631 37.8725 13.8631 38.2095C13.8631 38.546 13.5912 38.8187 13.2548 38.8187H12.68C12.3436 38.8183 12.0717 38.546 12.0717 38.2095ZM13.8631 34.3862C13.8631 34.7227 13.5912 34.9955 13.2548 34.9955H12.68C12.344 34.9955 12.0716 34.7232 12.0716 34.3862C12.0716 34.0498 12.3436 33.777 12.68 33.777H13.2548C13.5907 33.777 13.8631 34.0493 13.8631 34.3862ZM40.9634 1.99462C40.9274 2.03583 40.8913 2.07704 40.8569 2.11995C40.8158 2.17135 40.7772 2.22488 40.7386 2.27841C40.7076 2.32175 40.6758 2.36466 40.6465 2.40969C40.6092 2.46619 40.5753 2.52482 40.5413 2.58346C40.515 2.62849 40.4879 2.6731 40.4633 2.71941C40.4306 2.78101 40.4018 2.84431 40.3725 2.90762C40.3513 2.95393 40.3284 2.99982 40.3089 3.04697C40.2817 3.11325 40.2584 3.18165 40.2346 3.24963C40.2181 3.29679 40.1999 3.3431 40.1854 3.39153C40.1634 3.46376 40.1464 3.53811 40.1286 3.61245C40.1176 3.65833 40.1044 3.70337 40.0951 3.74967C40.0785 3.83167 40.0679 3.91579 40.0569 3.99991C40.0514 4.04028 40.0433 4.08021 40.0395 4.121C40.0272 4.24633 40.02 4.37336 40.02 4.50209V25.0658C40.02 25.8335 39.396 26.4589 38.6287 26.4589L20.9567 26.4585C20.1893 26.4585 19.5653 25.8336 19.5653 25.0654V4.50167C19.5653 3.06774 20.7306 1.90072 22.1623 1.90072H41.043C41.0154 1.93046 40.9908 1.96318 40.9636 1.99419L40.9634 1.99462ZM46.4293 6.13781H41.2358V4.50214C41.2358 3.06821 42.4003 1.90119 43.8323 1.90119C44.5255 1.90119 45.1775 2.17182 45.6687 2.6638C46.1591 3.15493 46.4293 3.80831 46.4293 4.5021L46.4293 6.13781Z" fill="#69A0A7"/>
</svg>