<svg xmlns="http://www.w3.org/2000/svg" width="106" height="106" viewBox="0 0 106 106" fill="none">
 <path class="fill-brand-500 dark:fill-brand-500" d="M66.8163 30.8276C64.1473 30.8458 61.5171 31.4692 59.124 32.6507C56.7308 33.8322 54.6369 35.5411 53 37.6486C51.3645 35.5412 49.2719 33.8325 46.8799 32.6508C44.4879 31.4693 41.8589 30.846 39.1908 30.8276C29.2392 30.8276 21.149 39.3892 21.149 49.9321V70.8197C21.149 71.9456 21.5964 73.0254 22.3929 73.8217C23.1893 74.6177 24.2695 75.0651 25.3958 75.0651C26.5222 75.0651 27.6023 74.6177 28.3988 73.8217C29.1953 73.0254 29.6426 71.9456 29.6426 70.8197V49.918C29.6426 44.0592 33.939 39.3044 39.2192 39.3044C44.4994 39.3044 48.7957 44.0734 48.7957 49.918V70.8054C48.7957 71.9315 49.2431 73.0113 50.0395 73.8074C50.836 74.6036 51.9162 75.0508 53.0425 75.0508C54.1689 75.0508 55.249 74.6036 56.0455 73.8074C56.8418 73.0113 57.2893 71.9315 57.2893 70.8054V49.918C57.2893 44.0592 61.5856 39.3044 66.8658 39.3044C72.1459 39.3044 76.4423 44.0734 76.4423 49.918V70.8054C76.4423 71.9315 76.8897 73.0113 77.6862 73.8074C78.4825 74.6036 79.5628 75.0508 80.6891 75.0508C81.8154 75.0508 82.8957 74.6036 83.692 73.8074C84.4885 73.0113 84.9359 71.9315 84.9359 70.8054V49.918C84.858 39.3892 76.7679 30.8276 66.8163 30.8276Z" fill="#4F868E"/>
  <path class="fill-brand-500 dark:fill-brand-500" d="M53 -0.135742C38.9262 -0.118891 25.4336 5.47764 15.4818 15.4261C5.53019 25.3747 -0.0681097 38.8629 -0.0849609 52.9322C-0.0681097 67.0015 5.53019 80.4898 15.4818 90.4383C25.4336 100.387 38.9262 105.983 53 106C67.0743 105.985 80.568 100.389 90.5202 90.4403C100.472 80.4914 106.07 67.0021 106.085 52.9322C106.068 38.8629 100.47 25.3747 90.5181 15.4261C80.5664 5.47764 67.0738 -0.118891 53 -0.135742ZM53 103.877C39.4888 103.862 26.5352 98.4902 16.9813 88.9393C7.42745 79.3886 2.05339 66.4392 2.03844 52.9322C2.05339 39.4252 7.42745 26.4758 16.9813 16.9251C26.5352 7.37422 39.4888 2.00192 53 1.98698C66.5112 2.00192 79.4648 7.37422 89.0186 16.9251C98.5726 26.4758 103.947 39.4252 103.962 52.9322C103.947 66.4392 98.5726 79.3886 89.0186 88.9393C79.4648 98.4902 66.5112 103.862 53 103.877Z" fill="#4F868E"/>
</svg>