<svg xmlns="http://www.w3.org/2000/svg" width="61" height="54" viewBox="0 0 61 54" fill="none">
  <path class="fill-brand-200 dark:fill-brand-800"  d="M7.36441 22.9897C7.62696 22.9897 7.8338 22.7851 7.8338 22.5243V21.4544H52.8124V24.478C52.8124 24.7383 53.0188 24.9434 53.2818 24.9434C53.5444 24.9434 53.7512 24.7388 53.7512 24.478L53.7502 14.728C53.7502 13.379 52.6429 12.2812 51.2823 12.2812H50.0906C49.8281 12.2812 49.6212 12.4858 49.6212 12.7466C49.6212 13.0069 49.8276 13.212 50.0906 13.212H51.2823C52.127 13.212 52.812 13.891 52.812 14.7286V20.5247L7.83338 20.5242V14.7281C7.83338 13.8906 8.51832 13.2115 9.36313 13.2115H36.5877C36.8502 13.2115 37.057 13.0069 37.057 12.7461C37.057 12.4858 36.8507 12.2808 36.5877 12.2808L9.36313 12.2812C8.0024 12.2812 6.89514 13.3791 6.89514 14.728V22.5248C6.89514 22.776 7.11119 22.9897 7.36453 22.9897L7.36441 22.9897Z" fill="#C3DCDE"/>
  <path class="fill-brand-200 dark:fill-brand-800"  d="M53.2818 37.7649C53.0193 37.7649 52.8124 37.9695 52.8124 38.2302V51.5621C52.8124 52.3901 52.1275 53.0692 51.2827 53.0692H9.36331C8.51851 53.0692 7.83356 52.3901 7.83356 51.5621V35.8575C7.83356 35.5972 7.6272 35.3921 7.36417 35.3921C7.10162 35.3921 6.89478 35.5967 6.89478 35.8575L6.89526 51.5621C6.89526 52.902 8.00261 53.9998 9.36325 53.9998H51.2826C52.6433 53.9998 53.7506 52.902 53.7506 51.5621V38.229C53.7506 37.9778 53.5442 37.7641 53.2817 37.7641L53.2818 37.7649Z" fill="#C3DCDE"/>
  <path class="fill-brand-200 dark:fill-brand-800"  d="M13.5015 16.8686C13.5015 17.8084 14.2712 18.5807 15.2094 18.5807C16.1666 18.5807 16.9363 17.8085 16.9363 16.8686C16.9363 15.9287 16.1666 15.1753 15.2094 15.1753C14.2706 15.1753 13.5015 15.9288 13.5015 16.8686Z" fill="#C3DCDE"/>
  <path class="fill-brand-200 dark:fill-brand-800"  d="M9.47632 16.8686C9.47632 17.8084 10.246 18.5807 11.1936 18.5807C12.1415 18.5807 12.9205 17.8085 12.9205 16.8686C12.9205 15.9287 12.1416 15.1753 11.1936 15.1753C10.2456 15.1753 9.47632 15.9288 9.47632 16.8686Z" fill="#C3DCDE"/>
  <path class="fill-brand-200 dark:fill-brand-800" d="M17.5182 16.8686C17.5182 17.8084 18.2879 18.5807 19.2261 18.5807C20.1833 18.5807 20.9531 17.8085 20.9531 16.8686C20.9531 15.9287 20.1834 15.1753 19.2261 15.1753C18.2879 15.1753 17.5182 15.9288 17.5182 16.8686Z" fill="#C3DCDE"/>
  <path class="fill-brand-200 dark:fill-brand-800" d="M48.6921 15.8825C48.448 16.2081 48.0261 16.3479 47.641 16.2269L44.985 15.3711C44.5626 15.2409 44.131 15.1665 43.6902 15.1665H26.0763C25.0159 15.1665 24.19 16.0967 24.3775 17.1668C24.5277 18.0043 25.3347 18.5715 26.1886 18.5715H48.1106C49.0586 18.5715 49.8375 17.7993 49.8375 16.8594C49.8375 16.3292 49.5842 15.8269 49.1618 15.5292C49.0494 15.4644 48.8619 15.6502 48.6929 15.8826L48.6921 15.8825Z" fill="#C3DCDE"/>
  <path class="fill-brand-200 dark:fill-brand-800"  d="M37.6097 40.3503V25.548C37.6097 24.5246 36.7649 23.687 35.7326 23.687H12.9475C12.685 23.687 12.4782 23.8916 12.4782 24.1524C12.4782 24.4127 12.6845 24.6177 12.9475 24.6177H35.7326C36.249 24.6177 36.6709 25.0365 36.6709 25.548V40.3503C36.6709 40.8622 36.2485 41.2805 35.7326 41.2805L11.3429 41.281C10.8265 41.281 10.4046 40.8622 10.4046 40.3507V34.4336C10.4046 34.1733 10.1982 33.9683 9.93521 33.9683C9.67266 33.9683 9.46582 34.1729 9.46582 34.4336V40.3507C9.46582 41.3741 10.3106 42.2117 11.3429 42.2117H35.7326C36.7746 42.2112 37.6097 41.3737 37.6097 40.3502L37.6097 40.3503Z" fill="#C3DCDE"/>
  <path class="fill-brand-200 dark:fill-brand-800"  d="M49.7251 23.6881H39.9469C39.3463 23.6881 38.8677 24.1717 38.8677 24.7581V31.1496C38.8677 31.7355 39.3463 32.2196 39.9469 32.2196H46L49.7443 23.688H49.725L49.7251 23.6881Z" fill="#C3DCDE"/>
  <path class="fill-brand-400 dark:fill-brand-600"  d="M28.9478 32.9543C28.9478 29.9955 26.5268 27.5952 23.552 27.5952C20.5676 27.5952 18.1373 29.9954 18.1373 32.9543C18.1373 35.9034 20.5681 38.3038 23.552 38.3038C26.5267 38.3038 28.9478 35.9036 28.9478 32.9543V32.9543ZM22.5009 35.9313C22.3226 35.9313 22.1444 35.8848 21.9845 35.8012C21.6183 35.6057 21.4027 35.2431 21.4027 34.8335V31.0656C21.4027 30.6655 21.6188 30.2933 21.9845 30.1075C22.341 29.912 22.7823 29.9307 23.1199 30.1632L25.9353 32.0423C26.2448 32.2469 26.4231 32.5821 26.4231 32.9447C26.4231 33.3169 26.2448 33.6516 25.9353 33.8567L23.1199 35.7455C22.9325 35.866 22.7169 35.9313 22.5009 35.9313L22.5009 35.9313Z" fill="#69A0A7"/>
  <path class="fill-brand-200 dark:fill-brand-800"  d="M46.7875 33.1128H39.7307C39.4682 33.1128 39.2614 33.3174 39.2614 33.5782C39.2614 33.8384 39.4677 34.0435 39.7307 34.0435H46.7875C47.05 34.0435 47.2569 33.8389 47.2569 33.5782C47.2569 33.3174 47.0505 33.1128 46.7875 33.1128Z" fill="#C3DCDE"/>
  <path d="M44.8355 35.8018C45.098 35.8018 45.3049 35.5972 45.3049 35.3365C45.3049 35.0762 45.0985 34.8711 44.8355 34.8711H39.7395C39.477 34.8711 39.2701 35.0757 39.2701 35.3365C39.2701 35.5968 39.4765 35.8018 39.7395 35.8018H44.8355Z" fill="#C3DCDE"/>
  <path d="M39.7403 48.8364C39.4777 48.8364 39.2709 49.0506 39.2709 49.3018C39.2709 49.5621 39.4772 49.7672 39.7403 49.7672H44.8362C45.0988 49.7672 45.3056 49.5626 45.3056 49.3018C45.3056 49.0506 45.0992 48.8364 44.8362 48.8364H39.7403Z" fill="#C3DCDE"/>
  <path class="fill-brand-200 dark:fill-brand-800"  d="M49.1336 47.543C49.1336 47.2827 48.9272 47.0776 48.6642 47.0776H39.7395C39.477 47.0776 39.2701 47.2822 39.2701 47.543C39.2701 47.8033 39.4765 48.0084 39.7395 48.0084H48.6642C48.9272 48.0079 49.1336 47.8033 49.1336 47.543Z" fill="#C3DCDE"/>
  <path class="fill-brand-200 dark:fill-brand-800"  d="M50.8512 45.1244V38.7233C50.8512 38.1374 50.3727 37.6533 49.772 37.6533H39.9469C39.3463 37.6533 38.8677 38.1369 38.8677 38.7233V45.1244C38.8677 45.7103 39.3463 46.1853 39.9469 46.1853H49.7725C50.3727 46.1848 50.8513 45.7103 50.8513 45.1244H50.8512Z" fill="#C3DCDE"/>
  <path class="fill-brand-200 dark:fill-brand-800"  d="M36.0708 44.2039C36.0708 43.9436 35.8645 43.7385 35.6014 43.7385H25.2788V43.2266C25.2788 42.9663 25.0725 42.7612 24.8095 42.7612C24.5469 42.7612 24.3401 42.9658 24.3401 43.2266V43.7385H11.4557C11.1932 43.7385 10.9863 43.9431 10.9863 44.2039C10.9863 44.4642 11.1927 44.6693 11.4557 44.6693H24.3401V45.1716C24.3401 45.4319 24.5464 45.637 24.8095 45.637C25.072 45.637 25.2788 45.4324 25.2788 45.1716V44.6693H35.6014C35.864 44.6688 36.0708 44.4642 36.0708 44.2039Z" fill="#C3DCDE"/>
  <path class="fill-brand-200 dark:fill-brand-800"  d="M27.559 47.1431C27.559 46.8828 27.3527 46.6777 27.0896 46.6777L10.3958 46.6782C10.1332 46.6782 9.92639 46.8828 9.92639 47.1436C9.92639 47.4039 10.1328 47.6089 10.3958 47.6089H27.0909C27.3534 47.6085 27.5598 47.3947 27.5598 47.1431H27.559Z" fill="#C3DCDE"/>
  <path class="fill-brand-200 dark:fill-brand-800"  d="M10.3952 48.7061C10.1326 48.7061 9.92578 48.9106 9.92578 49.1714C9.92578 49.4317 10.1321 49.6368 10.3952 49.6368H22.6699C22.9324 49.6368 23.1393 49.4322 23.1393 49.1714C23.1393 48.9111 22.9329 48.7061 22.6699 48.7061H10.3952Z" fill="#C3DCDE"/>
  <path class="fill-brand-400 dark:fill-brand-600"  d="M60.8921 29.1494C60.7511 28.8608 60.5075 28.6374 60.2071 28.526L51.4326 25.2791C50.8039 25.0558 50.1189 25.3627 49.8749 25.9956L47.7634 31.615C47.5289 32.2383 47.8477 32.9361 48.4672 33.1594L51.1232 34.1362L51.6488 36.8717C51.6769 37.0297 51.7898 37.1694 51.9399 37.2251C51.9961 37.2439 52.0523 37.253 52.109 37.253C52.2122 37.253 52.3153 37.216 52.4001 37.1507L54.6056 35.4295L57.2519 36.4063C57.8714 36.6296 58.5753 36.3131 58.8097 35.6898L60.9211 30.0705H60.9304C61.033 29.7727 61.0234 29.4471 60.8921 29.1493L60.8921 29.1494ZM57.2416 30.9729C56.6971 32.415 54.0319 33.1873 53.7224 33.2708C53.6851 33.2799 53.6381 33.2895 53.6003 33.2895C53.4501 33.2895 53.3 33.2151 53.206 33.0753C53.0369 32.8242 51.5169 30.5074 52.0705 29.0562C52.399 28.1817 53.3751 27.7351 54.248 28.0607C54.6234 28.2004 54.9237 28.4516 55.1209 28.7772C55.4774 28.6562 55.8717 28.6562 56.2471 28.7959C56.9229 29.0471 57.3453 29.6983 57.3453 30.3869C57.3448 30.5824 57.3167 30.7774 57.2416 30.9728L57.2416 30.9729Z" fill="#69A0A7"/>
  <path class="fill-brand-400 dark:fill-brand-600"  d="M14.1302 29.0755L10.9957 23.5398C10.8363 23.2512 10.564 23.0375 10.2448 22.9443C9.91641 22.8607 9.57877 22.8977 9.28764 23.0557L0.644468 27.8563C0.353337 28.0143 0.137787 28.2842 0.0438021 28.6006C-0.0404843 28.9262 -0.00318538 29.261 0.156184 29.5496L3.29071 35.0946C3.45009 35.3832 3.72232 35.5969 4.04154 35.6805C4.15392 35.7174 4.27599 35.727 4.38886 35.727C4.59522 35.727 4.81125 35.6805 4.99872 35.569L13.6419 30.7776C14.2518 30.4433 14.4678 29.6802 14.1302 29.0756L14.1302 29.0755ZM9.07205 29.15L7.88962 31.4758C7.73025 31.7923 7.41103 31.9878 7.05451 31.9969H7.03562C6.6883 31.9969 6.36956 31.811 6.19082 31.5133L4.76424 28.9733C4.58598 28.6664 4.59518 28.2846 4.79233 27.9965C4.9798 27.6987 5.31791 27.522 5.67443 27.559L8.2926 27.7732C8.61182 27.801 8.89326 27.9777 9.05263 28.2568C9.21248 28.5267 9.21248 28.8619 9.072 29.15L9.07205 29.15Z" fill="#69A0A7"/>
  <path class="fill-brand-500 dark:fill-brand-500" d="M33.8089 10.216L47.1633 15.2028C47.2102 15.2216 47.2664 15.2307 47.3226 15.2307C47.3885 15.2307 47.4539 15.212 47.5198 15.1841C47.6322 15.1375 47.7169 15.0444 47.7639 14.9238L51.039 6.30874C51.1232 6.0763 51.0017 5.80641 50.7667 5.71323L37.4124 0.726434C37.3 0.689455 37.1683 0.689455 37.0559 0.745163C36.9435 0.791747 36.8495 0.884911 36.8117 1.00546L33.5367 9.62054C33.4427 9.85345 33.5648 10.1229 33.8089 10.216V10.216ZM49.2925 6.15992L41.8602 9.06248L38.2287 2.02881L49.2925 6.15992ZM37.3181 2.30789L41.2218 9.86259C41.3061 10.0206 41.466 10.1138 41.6345 10.1138C41.7004 10.1138 41.7566 10.1046 41.8128 10.0859L49.7803 6.96906L47.0492 14.1607L34.5779 9.50906L37.3181 2.30789Z" fill="#4F868E"/>
  <path class="fill-brand-400 dark:fill-brand-600"  d="M25.5612 6.05681C25.7956 6.14997 26.0678 6.03808 26.171 5.80564C26.265 5.56359 26.1521 5.29369 25.9085 5.1914C24.7822 4.73565 23.5247 4.74478 22.3801 5.22838C21.235 5.71199 20.3436 6.59612 19.8743 7.73088C19.7803 7.97293 19.8932 8.24282 20.1368 8.33551C20.193 8.36336 20.2492 8.37249 20.3151 8.37249C20.4934 8.37249 20.6716 8.26107 20.7467 8.08385C21.1221 7.18148 21.8259 6.46495 22.755 6.08358C23.6652 5.70322 24.6601 5.6941 25.5612 6.05668V6.05681Z" fill="#69A0A7"/>
  <path class="fill-brand-400 dark:fill-brand-600"  d="M15.6034 6.53154C15.6596 6.55027 15.7255 6.55939 15.7817 6.55939C15.9691 6.55939 16.1479 6.4571 16.2133 6.27076C17.0862 4.15861 18.7282 2.50282 20.849 1.60952C22.9605 0.725867 25.2973 0.707143 27.4087 1.55381C27.6432 1.6561 27.9154 1.54468 28.0186 1.30264C28.1126 1.06059 27.9997 0.790692 27.7653 0.698005C25.4096 -0.250964 22.8292 -0.232227 20.4832 0.753714C18.1372 1.74927 16.3163 3.58188 15.3499 5.9173C15.2467 6.15983 15.3688 6.42925 15.6033 6.53153L15.6034 6.53154Z" fill="#69A0A7"/>
  <path class="fill-brand-400 dark:fill-brand-600"  d="M27.0529 3.63817C27.1561 3.40573 27.0437 3.12622 26.7996 3.03354C23.243 1.59142 19.1605 3.31256 17.7064 6.86689C17.6032 7.09932 17.7156 7.36922 17.9597 7.47152C18.0159 7.49025 18.0818 7.49937 18.138 7.49937C18.3162 7.49937 18.4945 7.39708 18.5696 7.21074C19.8363 4.1405 23.3652 2.65178 26.443 3.89854C26.6872 3.99219 26.9589 3.8803 27.0529 3.63825V3.63817Z" fill="#69A0A7"/>
  <path class="fill-brand-400 dark:fill-brand-600"  d="M24.1524 11.4542C24.4528 11.4542 24.7434 11.3985 25.0345 11.2775C26.1889 10.7939 26.7425 9.47271 26.2543 8.32836C25.7665 7.18394 24.4338 6.65376 23.2796 7.13735C22.1253 7.61184 21.5808 8.93293 22.0691 10.0774C22.4256 10.9332 23.2704 11.4542 24.1525 11.4542H24.1524Z" fill="#69A0A7"/>
</svg>