<svg xmlns="http://www.w3.org/2000/svg" width="80" height="69" viewBox="0 0 80 69" fill="none">
  <path class="fill-brand-200 dark:fill-brand-800" d="M62.8568 11.7131L59.6826 12.9264L53.3352 5.73412C52.1537 4.4018 50.0984 4.25538 48.7477 5.41428L24.5633 26.192C24.4996 26.25 24.4622 26.3194 24.4285 26.3979L14.2566 30.2865C13.4459 30.621 12.775 31.2261 12.4223 32.0301C12.0641 32.8469 12.0518 33.7432 12.3805 34.5686L13.0003 36.1253L9.25499 39.3383C8.58231 39.9111 8.17907 40.7246 8.11825 41.6073C8.05741 42.4899 8.34301 43.3436 8.93371 44.0098L25.6759 62.9724C26.609 64.0342 28.1078 64.3378 29.3533 63.8404C29.6809 63.7095 29.9863 63.5225 30.2637 63.2922L40.54 54.4602C40.5886 54.419 40.6243 54.3722 40.6563 54.3162L74.5461 41.3678L74.593 41.3491C75.3982 41.0275 76.0333 40.4153 76.3768 39.6151C76.7349 38.7982 76.7472 37.9019 76.4185 37.0765L67.0574 13.5676C66.4192 11.91 64.5255 11.0792 62.857 11.713L62.8568 11.7131ZM69.4845 37.76C69.3705 37.7186 69.2489 37.7127 69.1363 37.7577L61.4213 40.839C61.1594 40.9436 61.0351 41.2322 61.1398 41.4951C61.2442 41.7574 61.5324 41.8819 61.7948 41.7771L68.5828 39.066C67.6456 40.2011 66.4222 41.1351 64.9525 41.7221L23.1503 58.4281C22.9502 58.2252 22.7897 57.9853 22.6777 57.704L15.3962 39.4181L66.1066 19.165L70.1102 30.1737C71.0583 32.7729 70.7504 35.5153 69.4847 37.76L69.4845 37.76ZM20.9582 56.0867L14.3415 48.5996L16.8808 45.8464L20.9582 56.0867ZM58.6741 13.3076L42.9158 19.3297L55.1308 9.28873L58.6741 13.3076ZM49.4031 6.18546C50.3397 5.3766 51.7698 5.47922 52.5829 6.4044L54.4617 8.53435L39.9721 20.4403C39.9629 20.4439 39.9666 20.4531 39.9569 20.457L27.032 25.3907L49.4031 6.18546ZM13.3523 32.4307C13.5889 31.8795 14.0275 31.4547 14.5891 31.2304L14.6263 31.2155L63.2314 12.6509C63.372 12.5948 63.5197 12.5577 63.6618 12.5334L63.8073 12.7906L65.7803 18.2086L15.0326 38.4761L13.3225 34.1812C13.0986 33.6187 13.1013 32.9982 13.3526 32.4306L13.3523 32.4307ZM9.13122 41.6701C9.16936 41.0568 9.45613 40.4968 9.91877 40.1056L13.4054 37.1153L16.4709 44.814L13.6729 47.8445L9.69993 43.3448C9.28708 42.8791 9.09282 42.2829 9.13115 41.6701L9.13122 41.6701ZM29.619 62.5175C28.6787 63.3172 27.2523 63.2238 26.4392 62.2986L24.5059 60.1147C24.9906 60.1601 25.4794 60.1063 25.951 59.9286L37.9691 55.3352L29.619 62.5175Z" fill="#C3DCDE"/>
  <path d="M43.8108 37.5239C42.8146 37.6935 41.8896 38.0954 41.019 38.4976C40.6428 38.6697 40.281 38.8248 39.914 38.9933L37.5592 37.3038L37.8211 37.1992C38.2085 37.0551 38.4002 36.6094 38.247 36.2246C38.094 35.8403 37.6618 35.6538 37.2872 35.8034L36.1 36.2557L33.7548 34.5624C33.072 34.0743 32.1832 33.9945 31.4284 34.3611L30.928 34.6041C32.5431 36.6979 34.1712 38.7973 35.957 40.7472C34.354 41.4637 32.8597 42.1256 31.4551 42.741L29.2236 41.1436C28.9171 40.9182 28.5125 40.884 28.168 41.0541L27.9416 41.1664C28.5657 41.9713 29.1811 42.7797 29.8575 43.5529C29.6779 43.701 29.513 43.8863 29.3852 44.1113L28.7477 45.2899L30.0201 45.7057C30.2669 45.7811 30.5047 45.8056 30.7367 45.7892C30.7825 46.8032 30.8824 47.818 30.9826 48.8321L31.2241 48.7576C31.5818 48.6473 31.8514 48.3438 31.9286 47.9651L32.4404 45.272C33.8765 44.7636 35.4251 44.2101 37.0806 43.6253C37.1244 46.2704 37.3858 48.9161 37.6524 51.5485L38.1825 51.38C38.982 51.1258 39.5721 50.4553 39.7322 49.6306L40.2703 46.7857L41.4426 46.2956C41.8226 46.1332 41.9989 45.7037 41.8496 45.3286C41.6965 44.9443 41.251 44.7525 40.8709 44.9149L40.609 45.0196L41.1568 42.1708C41.5389 42.0401 41.9074 41.9035 42.2992 41.769C43.1996 41.4419 44.155 41.1147 44.9938 40.5514C45.8576 39.9674 46.6239 39.0852 46.84 38.0749C46.001 37.4647 44.8384 37.3528 43.8109 37.5242L43.8108 37.5239Z" fill="#4F868E"/>
  <path class="fill-brand-200 dark:fill-brand-800" d="M21.0972 43.2159L31.7895 39.1626L31.8456 39.1402C32.0908 39.0204 32.1866 38.7432 32.0766 38.4937C31.9666 38.2442 31.6818 38.1296 31.4253 38.2214L20.7331 42.2746C20.5103 42.3961 20.3468 42.6679 20.4385 42.9247C20.5429 43.187 20.8353 43.3205 21.0972 43.2159L21.0972 43.2159Z" fill="#C3DCDE"/>
  <path class="fill-brand-200 dark:fill-brand-800" d="M35.3677 48.1242L24.6754 52.1775C24.449 52.2898 24.2892 52.5707 24.3808 52.8275C24.4852 53.0899 24.7734 53.2143 25.0299 53.1226L35.7221 49.0693L35.741 49.0618C35.9937 48.9608 36.1175 48.6724 36.0129 48.4096C35.9217 48.1525 35.6204 48.0233 35.3677 48.1242L35.3677 48.1242Z" fill="#C3DCDE"/>
  <path class="fill-brand-200 dark:fill-brand-800" d="M18.0759 33.6956L44.1126 23.7535L44.1218 23.7498C44.2996 23.6788 44.3842 23.4818 44.3133 23.3037C44.2423 23.1255 44.042 23.0316 43.8641 23.1027L17.8274 33.0448L17.8182 33.0484C17.6404 33.1195 17.5558 33.3165 17.6267 33.4946C17.6885 33.6764 17.898 33.7666 18.0759 33.6956Z" fill="#C3DCDE"/>
  <path class="fill-brand-500 dark:fill-brand-500"  d="M63.2399 22.9509L55.5249 26.0322C55.263 26.1368 55.1387 26.4254 55.2433 26.6883C55.3478 26.9506 55.636 27.0751 55.8984 26.9703L63.6134 23.889C63.8753 23.7844 63.9996 23.4958 63.8949 23.2329C63.7898 22.9703 63.5018 22.8463 63.2399 22.9509Z" fill="#4F868E"/>
  <path class="fill-brand-500 dark:fill-brand-500"  d="M64.4194 25.9129L56.7044 28.9941C56.4425 29.0987 56.3182 29.3874 56.4228 29.6502C56.5273 29.9125 56.8155 30.037 57.0779 29.9322L64.7929 26.8509C65.0548 26.7463 65.1791 26.4577 65.0744 26.1949C64.9693 25.9322 64.6813 25.8082 64.4194 25.9129Z" fill="#4F868E"/>
  <path class="fill-brand-500 dark:fill-brand-500"  d="M65.5992 28.8762L57.8842 31.9575C57.6223 32.0621 57.498 32.3507 57.6027 32.6136C57.7071 32.8759 57.9953 33.0004 58.2577 32.8956L65.9727 29.8143C66.2346 29.7097 66.3589 29.4211 66.2543 29.1582C66.1491 28.8956 65.8611 28.7716 65.5992 28.8762Z" fill="#4F868E"/>
  <path class="fill-brand-500 dark:fill-brand-500"  d="M66.7794 31.8401L59.0645 34.9214C58.8025 35.026 58.6782 35.3146 58.7829 35.5774C58.8874 35.8398 59.1755 35.9643 59.438 35.8594L67.1529 32.7782C67.4149 32.6736 67.5391 32.3849 67.4345 32.1221C67.3294 31.8595 67.0414 31.7355 66.7794 31.8401Z" fill="#4F868E"/>
  <path class="fill-brand-200 dark:fill-brand-800" d="M67.9549 34.7927L60.24 37.874C59.978 37.9786 59.8538 38.2672 59.9584 38.5301C60.0629 38.7924 60.3511 38.9169 60.6135 38.8121L68.3285 35.7308C68.5904 35.6262 68.7147 35.3376 68.61 35.0747C68.5049 34.8121 68.2169 34.6881 67.9549 34.7927Z" fill="#C3DCDE"/>
</svg>