<svg xmlns="http://www.w3.org/2000/svg" width="56" height="54" viewBox="0 0 56 54" fill="none">
  <path class="fill-brand-500 dark:fill-brand-500"  d="M28.7441 15.8773H40.8531C41.9854 15.8773 42.9071 14.9754 42.9071 13.8659V2.01185C42.9071 0.902304 41.986 0.000484098 40.8531 0.000484098L28.7441 0C27.6118 0 26.6901 0.90187 26.6901 2.01137V13.8659C26.6901 14.9755 27.6112 15.8773 28.7441 15.8773V15.8773ZM41.4885 7.61853V13.8658C41.4885 14.2095 41.2032 14.4893 40.8522 14.4893H31.9849L32.2578 14.1466L39.4741 5.09442L41.4885 7.61853ZM28.1074 12.5307L30.8695 9.06702L32.6881 11.3505L30.187 14.4899H28.7437C28.3927 14.4899 28.1074 14.2101 28.1074 13.8664L28.1074 12.5307Z" fill="#4F868E"/>
  <path class="fill-brand-400 dark:fill-brand-600" d="M53.9454 27.4062H41.837C40.7046 27.4062 39.7829 28.3081 39.7829 29.4172V41.2723C39.7829 42.3809 40.7041 43.2833 41.837 43.2833H53.9459C55.0782 43.2833 56 42.3814 56 41.2723L55.9995 29.4172C55.9995 28.3082 55.0783 27.4062 53.9454 27.4062H53.9454ZM54.5818 41.2727C54.5818 41.6164 54.2965 41.8957 53.9454 41.8957L41.837 41.8952C41.4859 41.8952 41.2006 41.6159 41.2006 41.2722V29.4176C41.2006 29.0686 41.4805 28.7946 41.837 28.7946H53.9459C54.297 28.7946 54.5823 29.0739 54.5823 29.4176L54.5818 41.2727Z" fill="#69A0A7"/>
  <path class="fill-brand-500 dark:fill-brand-500"  d="M51.6502 29.9815H49.0929C48.7013 29.9815 48.3838 30.2918 48.3838 30.6757V34.7217C47.8854 34.3983 47.2896 34.2081 46.6482 34.2081C44.9102 34.2081 43.4955 35.5926 43.4955 37.2952C43.4955 38.9967 44.9097 40.3817 46.6482 40.3817C48.3872 40.3817 49.8014 38.9972 49.8014 37.2952V31.3698H51.6498C52.0414 31.3698 52.3588 31.0595 52.3588 30.6756C52.3588 30.2918 52.0419 29.9814 51.6503 29.9814L51.6502 29.9815Z" fill="#4F868E"/>
  <path class="fill-brand-400 dark:fill-brand-600" d="M6.17534 22.3475H18.2843C19.4166 22.3475 20.3384 21.4456 20.3384 20.3361V8.48207C20.3384 7.37252 19.4172 6.4707 18.2843 6.4707H6.17534C5.04302 6.4707 4.12128 7.37257 4.12128 8.48207V20.3361C4.12128 21.4457 5.04295 22.3475 6.17534 22.3475ZM5.53946 8.48232C5.53946 8.1328 5.81933 7.85881 6.17584 7.85881H18.2848C18.6359 7.85881 18.9212 8.13862 18.9212 8.48232V20.3364C18.9212 20.6801 18.6359 20.9599 18.2848 20.9599H6.17533C5.82426 20.9599 5.53896 20.6801 5.53896 20.3364L5.53946 8.48232Z" fill="#69A0A7"/>
  <path class="fill-brand-500 dark:fill-brand-500"  d="M7.83488 19.2829C7.94416 19.3444 8.06678 19.3758 8.18941 19.3758C8.31205 19.3758 8.43467 19.3449 8.54395 19.2829L16.1029 15.0102C16.3224 14.8863 16.4574 14.6573 16.4574 14.4089C16.4574 14.1611 16.3224 13.9316 16.1029 13.8077L8.54395 9.53497C8.32539 9.41152 8.05393 9.41152 7.83488 9.53497C7.61533 9.6589 7.48035 9.88788 7.48035 10.1362V18.681C7.48035 18.9298 7.61533 19.1588 7.83488 19.2828V19.2829Z" fill="#4F868E"/>
  <path class="fill-brand-400 dark:fill-brand-600" d="M34.2871 19.15C33.7338 18.6262 33.0025 18.33 32.2573 18.3522C32.2351 18.3527 32.2108 18.3522 32.1876 18.3522C30.6092 18.4099 29.3939 19.6622 29.4206 21.1973L29.4211 21.2457L23.6359 24.3759C20.0965 26.294 16.0977 27.3314 12.0714 27.3768L10.7443 27.3957L10.726 25.9962C10.723 25.8117 10.6464 25.6365 10.5119 25.5082C10.3769 25.3794 10.1756 25.3267 10.008 25.3112L6.74899 25.3523C6.35737 25.3572 6.04438 25.6723 6.04933 26.0553L6.06762 27.4601L6.0424 27.4606C4.40518 27.4814 2.8758 28.1243 1.73515 29.2697C0.594424 30.4156 -0.0216949 31.9279 0.000583712 33.5278L0.0312425 35.8781C0.0534933 37.478 0.710145 38.9754 1.87961 40.0922C3.03023 41.1916 4.54128 41.7938 6.14344 41.7938C6.17163 41.7938 6.2003 41.7933 6.22849 41.7933L7.01618 41.7826L7.04931 44.3706C7.09233 47.5328 8.29734 50.5704 10.4419 52.9242C11.0283 53.5661 11.8333 53.9462 12.709 53.9946C12.7718 53.998 12.8341 53.9999 12.8964 53.9999C13.7043 53.9999 14.4747 53.7119 15.082 53.1798L17.2146 51.3234C17.3561 51.2014 17.4411 51.0286 17.4515 50.8451C17.4624 50.6606 17.3981 50.4806 17.273 50.3431L15.5522 48.457C14.5069 47.3097 13.9204 45.8293 13.9007 44.2884L13.8646 41.76C17.3441 41.9405 20.8005 42.8507 23.9052 44.4278L29.7675 47.4161L29.768 47.4548C29.7858 48.9933 31.0729 50.2336 32.6438 50.2336C32.6542 50.2336 32.6641 50.2321 32.6765 50.2336C33.4399 50.2234 34.156 49.9204 34.6924 49.3801C35.2284 48.8408 35.5182 48.1316 35.5078 47.3846L35.1617 21.129C35.1493 20.3815 34.8408 19.6796 34.2875 19.1499L34.2871 19.15ZM9.31728 26.7082L9.32716 27.416L7.57082 27.4397L7.48627 27.4407L7.47638 26.7319L9.31728 26.7082ZM6.20902 40.4049C4.96594 40.4393 3.76837 39.9576 2.86887 39.0988C1.97042 38.2395 1.46557 37.0893 1.44823 35.8592L1.41757 33.5088C1.40026 32.2792 1.87298 31.1179 2.74961 30.2382C3.6258 29.3576 4.80215 28.8639 6.06356 28.8484L7.42534 28.8295L9.34485 28.8053L9.42347 34.6784L9.49961 40.3622L6.20902 40.4049ZM14.4938 49.3811L15.7418 50.7486L14.1377 52.1443C13.7654 52.4716 13.2868 52.6386 12.7879 52.6086C12.2899 52.5815 11.8321 52.3646 11.4982 51.9991C9.58113 49.8961 8.50479 47.1804 8.46618 44.3523L8.43305 41.7648L10.2018 41.7435C10.2067 41.7435 10.2112 41.7469 10.2166 41.7469H10.227L12.1984 41.7193L12.2741 41.7183C12.3309 41.7164 12.3878 41.7149 12.4466 41.7144L12.4823 44.3058C12.5065 46.1812 13.2205 47.9835 14.4938 49.3811L14.4938 49.3811ZM17.284 31.8984C17.0561 31.941 16.8286 31.9812 16.5992 32.0175C16.5606 32.0243 16.5216 32.0272 16.4835 32.0272C16.1423 32.0272 15.8417 31.7861 15.7848 31.4458C15.721 31.0677 15.9826 30.7104 16.3693 30.6489C16.5859 30.6136 16.8024 30.5749 17.0195 30.5352C17.4032 30.4655 17.7755 30.7114 17.8482 31.0875C17.9219 31.4632 17.6692 31.8267 17.284 31.8984L17.284 31.8984ZM26.1207 28.7783C24.6101 29.5955 23.0095 30.2897 21.365 30.8415C21.2888 30.8667 21.2112 30.8788 21.135 30.8788C20.8403 30.8788 20.5654 30.6977 20.464 30.4097C20.3375 30.0471 20.5347 29.6521 20.9051 29.5282C22.4726 29.0029 23.9965 28.3421 25.4354 27.5641C25.7786 27.3773 26.2087 27.5012 26.3981 27.8357C26.588 28.1707 26.4634 28.5928 26.1207 28.7782L26.1207 28.7783ZM33.6747 48.4124C33.4027 48.6864 33.0413 48.8399 32.6576 48.8457H32.6422C31.8461 48.8457 31.1935 48.2174 31.1845 47.438L30.9833 32.4624C30.9852 32.4392 30.9862 32.4154 30.9862 32.3927L30.8933 25.3422L30.8384 21.1809C30.8245 20.4069 31.4327 19.7771 32.2243 19.7398C32.2397 19.7412 32.2555 19.7412 32.2708 19.7398V19.7403C32.6792 19.7543 33.0184 19.8806 33.2988 20.145C33.5797 20.4141 33.7369 20.7704 33.7423 21.148L34.0885 47.4037C34.0944 47.7808 33.9466 48.139 33.6746 48.413L33.6747 48.4124Z" fill="#69A0A7"/>
</svg>