<svg xmlns="http://www.w3.org/2000/svg" width="57" height="59" viewBox="0 0 57 59" fill="none">
  <path class="fill-brand-400 dark:fill-brand-600"  d="M16.0151 50.7883C15.7103 50.6416 14.8206 50.1778 14.4547 49.8725C13.5404 49.0911 12.48 48.9326 11.7728 49.4695C11.5657 49.628 11.4068 49.8236 11.2974 49.9822C11.2362 50.0676 11.139 50.1897 11.139 50.202C11.0661 50.202 10.8101 49.9699 10.7613 49.9214C10.5906 49.7629 10.4076 49.592 10.1517 49.4453C9.44444 49.0669 8.48168 49.2013 7.77452 49.7994C7.21376 50.2633 6.87248 50.9103 6.60418 51.423C6.43354 51.7525 6.55536 52.1798 6.89665 52.3512C6.9943 52.4001 7.10378 52.4366 7.21376 52.4366C7.4574 52.4366 7.70153 52.3023 7.82334 52.0701C8.05514 51.6182 8.29878 51.1543 8.65239 50.8614C8.92069 50.6293 9.29848 50.5562 9.50561 50.6663C9.60326 50.7152 9.98105 51.0694 10.054 51.1425C10.5053 51.5208 11.0172 51.6675 11.468 51.5455C11.9311 51.4235 12.1994 51.0694 12.3947 50.8254C12.4677 50.7276 12.5412 50.6303 12.6018 50.5814C12.7725 50.4594 13.1991 50.6179 13.5769 50.9355C14.1376 51.4117 15.2956 51.9856 15.4174 52.0464C15.7587 52.205 16.173 52.0706 16.3318 51.7288C16.503 51.3746 16.3565 50.9592 16.0152 50.7883L16.0151 50.7883Z" fill="#69A0A7"/>
  <path class="fill-brand-500 dark:fill-brand-500"  d="M22.5008 25.5278C27.6206 25.5278 31.79 21.3402 31.79 16.2126C31.79 11.0849 27.621 6.90918 22.5008 6.90918C17.3687 6.90918 13.1997 11.0845 13.1997 16.2126C13.1992 21.3402 17.3687 25.5278 22.5008 25.5278Z" fill="#4F868E"/>
  <path class="fill-brand-400 dark:fill-brand-600"  d="M56.0246 27.7376C55.8781 27.6156 55.6833 27.5544 55.488 27.5791C51.5262 28.0429 47.8811 27.3227 44.6753 25.4423V2.8446C44.6753 1.28181 43.3954 0 41.835 0H3.45929C1.89939 0 0.619019 1.28181 0.619019 2.8446V55.7459C0.619019 57.321 1.89888 58.5905 3.45929 58.5905H43.9927C44.3705 58.5905 44.6753 58.2729 44.6753 57.9069V54.0369C48.686 51.9124 51.7457 49.4827 53.7451 46.809C55.3662 44.6604 56.2564 41.8765 56.2564 38.9954V28.264C56.2564 28.0561 56.1711 27.8728 56.0247 27.7385L56.0246 27.7376ZM43.9927 44.281C40.8965 44.281 38.3852 41.754 38.3852 38.6525C38.3852 35.5638 40.8965 33.0363 43.9927 33.0363C47.0889 33.0363 49.6127 35.5633 49.6127 38.6525C49.6003 41.7539 47.0891 44.281 43.9927 44.281ZM43.3102 57.2344H3.45977C2.64304 57.2344 1.98458 56.575 1.98458 55.757L1.98508 2.84433C1.98508 2.02636 2.64348 1.3669 3.46026 1.3669H41.836C42.6527 1.3669 43.3112 2.02631 43.3112 2.84433V25.4307C40.0931 27.3106 36.4602 28.0312 32.4984 27.5674C32.3036 27.5432 32.1083 27.604 31.9618 27.726C31.8153 27.8603 31.73 28.0436 31.73 28.251V30.2411L7.21477 30.2406C6.83698 30.2406 6.5322 30.5458 6.5322 30.9242C6.5322 31.3026 6.84932 31.6078 7.21477 31.6078H31.7288V35.9298H7.21477C6.83698 35.9298 6.5322 36.2351 6.5322 36.6134C6.5322 36.9918 6.84932 37.2971 7.21477 37.2971H31.7288V38.9577C31.7288 39.8611 31.8264 40.7522 32.0089 41.6072H7.21462C6.83683 41.6072 6.53205 41.9125 6.53205 42.2908C6.53205 42.6692 6.84917 42.9744 7.21462 42.9744H32.3397C32.8275 44.5372 33.583 46.0022 34.595 47.2717C36.5944 49.7503 39.52 52.021 43.2989 54.0234L43.2984 57.2346L43.3102 57.2344Z" fill="#69A0A7"/>
  <path class="fill-brand-500 dark:fill-brand-500"  d="M46.2108 36.1008L42.8463 39.7268L41.6153 38.3962C41.3593 38.1156 40.9204 38.1033 40.6521 38.3597C40.3719 38.616 40.3596 39.0556 40.6156 39.3243L42.3467 41.1924C42.4808 41.3267 42.6638 41.4122 42.8463 41.4122C43.0411 41.4122 43.2241 41.3267 43.3459 41.1924L47.21 37.0289C47.4659 36.7483 47.4536 36.3206 47.1735 36.0642C46.9057 35.8074 46.4791 35.8197 46.2108 36.1008Z" fill="#4F868E"/>
</svg>