<svg xmlns="http://www.w3.org/2000/svg" width="37" height="49" viewBox="0 0 37 49" fill="none">
  <path class="fill-brand-400 dark:fill-brand-500" d="M29.0696 25.9384C29.8576 26.1814 30.6972 25.7363 30.9398 24.9471L31.2646 23.8905C31.5071 23.1013 31.0627 22.2604 30.2747 22.0174L29.8998 21.9018L30.2989 20.6033C30.7038 19.2857 29.9647 17.887 28.6492 17.4814L28.1535 17.3286C28.0122 16.2258 27.9166 15.179 27.8792 14.192C27.8811 14.1857 27.8748 14.1838 27.8769 14.1772C27.7552 11.2685 28.0657 8.78593 28.8494 6.28198C28.9295 6.0211 28.7865 5.73994 28.5194 5.65761L20.9752 3.33176C20.7147 3.25145 20.432 3.40132 20.358 3.66413C19.5934 6.17396 18.4565 8.40179 16.7226 10.7384L16.7187 10.7512C16.1269 11.5443 15.4662 12.3582 14.7306 13.1904L14.2349 13.0376C12.9193 12.632 11.5227 13.3723 11.1178 14.6898L10.7187 15.9883L10.3437 15.8727C9.55568 15.6298 8.71605 16.0749 8.47349 16.8641L8.14872 17.9207C7.90615 18.7099 8.35055 19.5508 9.13854 19.7937L9.51351 19.9094L8.28682 23.9004L7.91184 23.7848C7.12383 23.5419 6.2842 23.987 6.04163 24.7761L5.71687 25.8328C5.47429 26.622 5.91869 27.4629 6.70668 27.7058L7.08165 27.8214L6.68254 29.12C6.27758 30.4375 7.01673 31.8362 8.33227 32.2418L8.82174 32.3927C8.96104 33.5018 9.05655 34.5489 9.09866 35.5442L9.09472 35.557C9.21641 38.4657 8.9059 40.9483 8.12852 43.4542C8.0421 43.7131 8.19142 43.9962 8.45223 44.0766L15.9964 46.4025C16.2635 46.4848 16.5397 46.3329 16.6199 46.072C17.3779 43.5602 18.5148 41.3324 20.249 38.9958C20.2509 38.9896 20.2591 38.9849 20.2591 38.9849C20.8529 38.1853 21.5135 37.3717 22.2577 36.535L22.7472 36.6859C24.0627 37.0915 25.4593 36.3512 25.8643 35.0337L26.2634 33.7351L26.6384 33.8507C27.4264 34.0937 28.266 33.6486 28.5086 32.8594L28.8333 31.8028C29.0759 31.0136 28.6315 30.1726 27.8435 29.9297L27.4685 29.8141L28.6952 25.823L29.0696 25.9384ZM21.3233 5.77359L26.8719 7.48419C27.0691 7.54498 27.2734 7.55906 27.4707 7.55046C27.2558 8.45293 27.1004 9.36645 26.998 10.3108C26.8455 10.3544 26.6856 10.3537 26.5268 10.3047L20.0249 8.30019C19.8661 8.25124 19.7292 8.15328 19.6273 8.03124C20.0647 7.19735 20.4488 6.35432 20.7781 5.48724C20.943 5.60749 21.1265 5.71291 21.3233 5.77359ZM16.9917 12.0339C17.2214 12.3278 17.5293 12.5482 17.8981 12.6619L25.8297 15.1072C26.1919 15.2189 26.5768 15.212 26.9255 15.0965C26.9716 15.7168 27.0281 16.3475 27.1043 17.0052L15.7789 13.5136C16.2112 13.0127 16.6119 12.5229 16.9917 12.0339ZM15.6533 43.9619L10.1047 42.2513C9.90758 42.1905 9.70324 42.1764 9.49938 42.183C9.71618 41.2743 9.87172 40.3605 9.97835 39.4246C10.1245 39.379 10.2907 39.3817 10.4495 39.4307L16.9514 41.4352C17.1102 41.4842 17.2428 41.574 17.349 41.7042C16.9054 42.5361 16.521 43.3791 16.192 44.2462C16.0272 44.1257 15.8501 44.0226 15.6533 43.9619ZM19.9764 37.7058C19.7529 37.4138 19.4388 37.1914 19.0762 37.0797L11.1445 34.6347C10.7758 34.521 10.3911 34.528 10.0424 34.6435C9.99641 34.0232 9.94818 33.3879 9.86766 32.7221L21.2056 36.2175C20.7672 36.7162 20.3646 37.2125 19.9764 37.7058ZM24.91 34.7392C24.6674 35.5284 23.8277 35.9734 23.0398 35.7305L8.62541 31.2866C7.8374 31.0436 7.39303 30.2027 7.63559 29.4135L9.7211 22.6283L12.6002 23.5159L12.2715 24.5854L10.905 24.1641C10.6445 24.0838 10.3638 24.2271 10.2816 24.4946C10.2014 24.7555 10.3511 25.0386 10.6116 25.119L11.978 25.5402L11.6649 26.5588L10.2985 26.1375C10.038 26.0572 9.75729 26.2005 9.67509 26.4679C9.5949 26.7288 9.74455 27.012 10.005 27.0923L11.3715 27.5136L11.3362 27.6282C11.1288 28.3031 11.5071 29.019 12.1872 29.2286L12.3017 29.2639L11.881 30.6325C11.7988 30.8999 11.9439 31.1745 12.211 31.2568C12.4715 31.3371 12.7522 31.1938 12.8344 30.9264L13.255 29.5579L14.272 29.8714L13.8514 31.2399C13.7692 31.5074 13.9143 31.7819 14.1813 31.8643C14.4418 31.9446 14.7225 31.8013 14.8047 31.5338L15.2254 30.1653L18.2124 31.0862L17.7917 32.4547C17.7095 32.7222 17.8546 32.9968 18.1217 33.0791C18.3822 33.1594 18.6629 33.0161 18.7451 32.7486L19.1657 31.3801L20.1827 31.6937L19.7621 33.0622C19.6799 33.3296 19.825 33.6042 20.092 33.6865C20.3525 33.7668 20.6332 33.6235 20.7154 33.3561L21.1361 31.9876L21.2506 32.0229C21.9244 32.2306 22.6392 31.8517 22.8466 31.1769L22.8819 31.0622L24.2483 31.4835C24.5153 31.5658 24.7915 31.4139 24.8717 31.153C24.9539 30.8856 24.8088 30.611 24.5418 30.5286L23.1753 30.1074L23.4884 29.0888L24.8548 29.5101C25.1219 29.5924 25.3981 29.4406 25.4782 29.1797C25.5604 28.9122 25.4153 28.6376 25.1483 28.5553L23.7819 28.134L24.1106 27.0645L26.9959 27.9541L24.91 34.7392ZM13.5537 23.8099L13.8472 22.855L15.1755 23.2645C15.347 23.3174 15.483 23.464 15.5187 23.6423L15.7016 24.5418L16.9996 22.719C17.134 22.5306 17.4333 22.4624 17.6455 22.5419C17.883 22.6291 18.0166 22.8512 17.9907 23.0943L17.6745 25.7076L19.8798 21.656C19.991 21.4532 20.2305 21.3529 20.4483 21.4132C20.6707 21.4818 20.8268 21.6763 20.8173 21.9105L20.7137 25.5298L21.5998 24.4581C21.7225 24.3078 21.967 24.2368 22.1533 24.2874C22.3544 24.3354 22.52 24.4979 22.5626 24.6992L22.7389 25.5967L23.4508 25.8162L23.1573 26.771L22.1659 26.4654C21.9881 26.4105 21.8584 26.2659 21.8246 26.0814L21.7723 25.8214L20.5567 27.2862C20.4239 27.4474 20.1958 27.5094 19.9963 27.4339C19.7968 27.3584 19.6683 27.1655 19.6781 26.9524L19.7625 23.9612L17.3048 28.4716C17.1917 28.6807 16.946 28.779 16.7236 28.7104L16.7174 28.7085C16.4887 28.638 16.3424 28.4116 16.3748 28.1709L16.7899 24.7378L15.9096 25.9718C15.7913 26.1303 15.5494 26.2161 15.3529 26.1764C15.1309 26.1288 14.9672 25.9601 14.9204 25.7503L14.5969 24.1315L13.5537 23.8099ZM27.2889 26.9991L24.4036 26.1096L24.7011 25.1419L26.0675 25.5632C26.3345 25.6455 26.6107 25.4936 26.6909 25.2327C26.7731 24.9653 26.628 24.6907 26.361 24.6084L24.9945 24.1871L25.3076 23.1686L26.674 23.5898C26.9411 23.6722 27.2172 23.5203 27.2974 23.2594C27.3796 22.9919 27.2345 22.7174 26.9675 22.635L25.6011 22.2138L25.6363 22.0991C25.8437 21.4242 25.4673 20.7021 24.7935 20.4944L24.679 20.4591L25.0996 19.0906C25.1798 18.8297 25.0302 18.5465 24.7697 18.4662C24.5026 18.3839 24.2264 18.5358 24.1463 18.7966L23.7256 20.1652L22.7087 19.8516L23.1293 18.4831C23.2095 18.2222 23.0598 17.9391 22.7993 17.8587C22.5323 17.7764 22.2561 17.9283 22.1759 18.1892L21.7553 19.5577L18.7683 18.6368L19.1889 17.2683C19.2691 17.0074 19.1195 16.7242 18.859 16.6439C18.5919 16.5616 18.3157 16.7135 18.2355 16.9744L17.8149 18.3429L16.7979 18.0294L17.2186 16.6609C17.2988 16.4 17.1491 16.1168 16.8886 16.0365C16.6216 15.9542 16.3454 16.1061 16.2652 16.3669L15.8446 17.7355L15.7301 17.7002C15.05 17.4905 14.3333 17.8756 14.1259 18.5505L14.0907 18.6651L12.7242 18.2439C12.4637 18.1636 12.183 18.3069 12.1008 18.5743C12.0206 18.8352 12.1703 19.1184 12.4308 19.1987L13.7972 19.62L13.4841 20.6385L12.1177 20.2172C11.8572 20.1369 11.5765 20.2802 11.4943 20.5477C11.4141 20.8085 11.5637 21.0917 11.8242 21.172L13.1907 21.5933L12.8933 22.5609L10.0142 21.6733L12.0707 14.9835C12.3133 14.1943 13.1529 13.7492 13.9409 13.9922L28.3553 18.4361C29.1433 18.679 29.5876 19.5199 29.3451 20.3091L27.2889 26.9991Z" fill="#4F868E"/>
</svg>