<svg width="68" height="20" viewBox="0 0 68 20" fill="none" xmlns="http://www.w3.org/2000/svg">
<g clip-path="url(#clip0_5314_4733)">
<path d="M39.2232 0.144409C33.7036 0.144409 29.6387 4.34481 29.6387 9.95921C29.6387 15.316 33.0178 19.7726 39.3932 19.7726C42.4737 19.7726 45.3842 18.5304 47.0102 16.6456C47.3088 16.3021 47.5231 15.9157 47.5231 15.4878C47.5293 15.2673 47.4904 15.0479 47.4089 14.843C47.3273 14.6381 47.2049 14.452 47.0491 14.2961C46.8932 14.1403 46.7072 14.018 46.5025 13.9367C46.2978 13.8554 46.0787 13.8168 45.8586 13.8233C45.3456 13.8233 44.8755 14.1239 44.5326 14.4659C43.121 15.7955 41.7936 16.5669 39.5689 16.5669C36.0183 16.5669 34.0065 14.3371 33.7936 11.3804H46.5858C47.7418 11.3804 48.1261 10.6948 48.1261 10.0093C48.1218 4.52081 44.6141 0.144409 39.2232 0.144409ZM33.8751 8.11591C34.2594 5.45971 36.2698 3.35871 39.2232 3.35871C42.1322 3.35871 44.0568 5.54411 44.3998 8.11591H33.8751Z" fill="#4F868E"/>
<path d="M58.3236 0.144409C52.9326 0.144409 49.4306 4.52081 49.4306 10.0022C49.4306 10.6877 49.815 11.3732 50.9709 11.3732H63.7645C63.5502 14.33 61.5384 16.5583 57.9878 16.5583C55.7631 16.5583 54.4358 15.7883 53.0241 14.4588C52.6826 14.1167 52.2111 13.8162 51.6981 13.8162C51.477 13.809 51.2568 13.8474 51.0511 13.9288C50.8454 14.0103 50.6586 14.1332 50.5022 14.2898C50.3457 14.4465 50.2231 14.6337 50.1417 14.8397C50.0604 15.0457 50.0221 15.2663 50.0293 15.4878C50.0293 15.9171 50.2436 16.3021 50.5422 16.6456C52.1682 18.5304 55.0773 19.7726 58.1592 19.7726C64.5346 19.7726 67.9138 15.316 67.9138 9.95921C67.9081 4.34481 63.8431 0.144409 58.3236 0.144409ZM53.1455 8.11591C53.4884 5.53981 55.4131 3.35871 58.3221 3.35871C61.2755 3.35871 63.2858 5.45971 63.6716 8.11591H53.1455Z" fill="#4F868E"/>
<path d="M20.3128 0.0999756C17.8495 0.0999756 15.6434 1.28358 14.1689 3.13978C12.6957 1.27928 10.4911 0.0999756 8.02491 0.0999756C3.59561 0.0999756 0.000709267 3.91688 0.000709267 8.60678V17.9093C-0.00619073 18.1613 0.0373083 18.4121 0.128808 18.6469C0.220308 18.8818 0.357909 19.0958 0.533409 19.2765C0.708809 19.4572 0.918709 19.6008 1.15061 19.6989C1.38241 19.797 1.63151 19.8475 1.88321 19.8475C2.13481 19.8475 2.38401 19.797 2.61581 19.6989C2.84761 19.6008 3.05751 19.4572 3.23301 19.2765C3.40851 19.0958 3.54601 18.8818 3.63751 18.6469C3.72901 18.4121 3.77261 18.1613 3.76561 17.9093V8.60678C3.76561 5.99638 5.67601 3.87248 8.02491 3.87248C10.3739 3.87248 12.2828 5.99488 12.2842 8.60528V17.9078C12.2842 18.4079 12.4825 18.8874 12.8353 19.2411C13.1882 19.5948 13.6668 19.7937 14.166 19.7941C14.5411 19.7937 14.9077 19.6816 15.219 19.4721C15.269 19.4377 15.3176 19.402 15.3619 19.3633C15.576 19.1862 15.7484 18.9639 15.8667 18.7123C15.985 18.4607 16.0463 18.186 16.0463 17.9078V8.60528C16.0463 5.99488 17.9567 3.87248 20.3056 3.87248C22.6546 3.87248 24.5692 5.99638 24.5692 8.60678V17.9093C24.5692 18.4095 24.7676 18.8893 25.1208 19.2431C25.4739 19.5968 25.9529 19.7955 26.4524 19.7955C26.9518 19.7955 27.4308 19.5968 27.784 19.2431C28.1372 18.8893 28.3356 18.4095 28.3356 17.9093V8.60678C28.337 3.91688 24.7364 0.0999756 20.3128 0.0999756Z" fill="#4F868E"/>
</g>
<defs>
<clipPath id="clip0_5314_4733">
<rect width="68" height="20" rx="3" fill="white"/>
</clipPath>
</defs>
</svg>
