<svg width="40" height="40" viewBox="0 0 40 40" fill="none" xmlns="http://www.w3.org/2000/svg">
<rect y="0.00012207" width="40" height="40" rx="20" fill="#D3E6E9"/>
<path d="M15.2174 21.9566C14.7391 21.9566 14.3297 21.7864 13.9891 21.4458C13.6486 21.1052 13.4783 20.6958 13.4783 20.2175C13.4783 19.7393 13.6486 19.3298 13.9891 18.9893C14.3297 18.6487 14.7391 18.4784 15.2174 18.4784C15.6957 18.4784 16.1051 18.6487 16.4457 18.9893C16.7862 19.3298 16.9565 19.7393 16.9565 20.2175C16.9565 20.6958 16.7862 21.1052 16.4457 21.4458C16.1051 21.7864 15.6957 21.9566 15.2174 21.9566ZM15.2174 25.4349C13.7681 25.4349 12.5362 24.9277 11.5217 23.9132C10.5072 22.8987 10 21.6668 10 20.2175C10 18.7682 10.5072 17.5364 11.5217 16.5219C12.5362 15.5074 13.7681 15.0001 15.2174 15.0001C16.1884 15.0001 17.0688 15.2393 17.8587 15.7175C18.6486 16.1958 19.2754 16.8262 19.7391 17.6088H27.3913L30 20.2175L26.087 24.1306L24.3478 22.8262L22.6087 24.1306L20.7609 22.8262H19.7391C19.2754 23.6088 18.6486 24.2393 17.8587 24.7175C17.0688 25.1958 16.1884 25.4349 15.2174 25.4349ZM15.2174 23.6958C16.029 23.6958 16.7428 23.4494 17.3587 22.9566C17.9746 22.4639 18.3841 21.8407 18.587 21.0871H21.3043L22.5652 21.9784L24.3478 20.6523L25.8913 21.8479L27.5217 20.2175L26.6522 19.3479H18.587C18.3841 18.5943 17.9746 17.9711 17.3587 17.4784C16.7428 16.9856 16.029 16.7393 15.2174 16.7393C14.2609 16.7393 13.442 17.0798 12.7609 17.761C12.0797 18.4422 11.7391 19.261 11.7391 20.2175C11.7391 21.174 12.0797 21.9929 12.7609 22.674C13.442 23.3552 14.2609 23.6958 15.2174 23.6958Z" fill="#1B3336"/>
</svg>
