<svg width="40" height="40" viewBox="0 0 40 40" fill="none" xmlns="http://www.w3.org/2000/svg">
<g clip-path="url(#clip0_5193_743)">
<rect y="0.000183105" width="40" height="40" rx="20" fill="#D3E6E9"/>
<path d="M24 21.0002H29V18.0002H24V21.0002ZM22 25.0002V17.0002C22 16.7168 22.0958 16.4794 22.2875 16.2877C22.4792 16.096 22.7167 16.0002 23 16.0002H30C30.2833 16.0002 30.5208 16.096 30.7125 16.2877C30.9042 16.4794 31 16.7168 31 17.0002V22.0002C31 22.2835 30.9042 22.521 30.7125 22.7127C30.5208 22.9044 30.2833 23.0002 30 23.0002H24L22 25.0002ZM15 31.0002C14.45 31.0002 13.9792 30.8043 13.5875 30.4127C13.1958 30.021 13 29.5502 13 29.0002V11.0002C13 10.4502 13.1958 9.97935 13.5875 9.58768C13.9792 9.19602 14.45 9.00018 15 9.00018H25C25.55 9.00018 26.0208 9.19602 26.4125 9.58768C26.8042 9.97935 27 10.4502 27 11.0002V15.0002H25V14.0002H15V26.0002H25V25.0002H27V29.0002C27 29.5502 26.8042 30.021 26.4125 30.4127C26.0208 30.8043 25.55 31.0002 25 31.0002H15ZM15 28.0002V29.0002H25V28.0002H15ZM15 12.0002H25V11.0002H15V12.0002Z" fill="#1B3336"/>
</g>
<defs>
<clipPath id="clip0_5193_743">
<rect width="40" height="40" fill="white"/>
</clipPath>
</defs>
</svg>
