<svg width="36" height="36" viewBox="0 0 36 36" fill="none" xmlns="http://www.w3.org/2000/svg">
<path d="M18 0C21.5601 4.24533e-08 25.0402 1.05568 28.0003 3.03355C30.9604 5.01141 33.2675 7.82263 34.6298 11.1117C35.9922 14.4008 36.3487 18.02 35.6541 21.5116C34.9596 25.0033 33.2453 28.2106 30.7279 30.7279C28.2106 33.2453 25.0033 34.9596 21.5116 35.6541C18.02 36.3487 14.4008 35.9922 11.1117 34.6298C7.82263 33.2675 5.01141 30.9603 3.03355 28.0003C1.05568 25.0402 -8.49067e-08 21.5601 0 18H3.96C3.96 20.7768 4.78343 23.4913 6.32617 25.8002C7.8689 28.1091 10.0617 29.9086 12.6271 30.9713C15.1926 32.0339 18.0156 32.312 20.7391 31.7702C23.4626 31.2285 25.9642 29.8913 27.9278 27.9278C29.8913 25.9642 31.2285 23.4626 31.7702 20.7391C32.312 18.0156 32.0339 15.1926 30.9713 12.6271C29.9086 10.0617 28.1091 7.8689 25.8002 6.32617C23.4913 4.78343 20.7768 3.96 18 3.96V0Z" fill="#447F88"/>
</svg>
