<svg width="64" height="64" viewBox="0 0 64 64" fill="none" xmlns="http://www.w3.org/2000/svg">
<path fill-rule="evenodd" clip-rule="evenodd" d="M14.2045 8.17889C37.2825 8.17889 56.0584 27.0252 56.0584 50.1906C56.0584 53.4821 55.6685 56.7616 54.9066 59.9559C54.428 61.9622 55.8786 64 57.9412 64H61C62.6569 64 64 62.6569 64 61V3C64 1.34315 62.6569 0 61 0H3C1.34315 0 0 1.34315 0 3V10.6217C0 10.6475 0.0256302 10.6655 0.0499366 10.6568C4.59369 9.01266 9.35613 8.17889 14.2045 8.17889ZM0 21.3008C0 23.398 2.23242 23.8761 2.20057 21.7792C2.17776 20.2778 1.68753 18.9639 0.694142 18.0615C0.412016 17.8052 0 18.0347 0 18.4159V21.3008ZM13.4064 14.6041C11.1049 11.9629 7.27441 11.0579 2.82367 11.6943C2.70249 11.7123 2.57611 11.7293 2.46275 11.7485C2.12337 11.8058 1.77973 11.8754 1.43301 11.9518C0.958555 12.0617 0.587185 12.1708 0.312287 12.2629C0.12255 12.3265 0 12.507 0 12.7071C0 13.1122 0.469427 13.3415 0.798209 13.1049C0.948969 12.9963 1.10104 12.8899 1.25458 12.7857C1.31512 12.7446 1.38765 12.7149 1.45928 12.7C2.05773 12.5756 2.31614 13.3405 1.81035 13.6837C1.31059 14.0228 0.821509 14.3735 0.369756 14.7186C0.134405 14.8983 0 15.179 0 15.4752V16.0105C0 16.0236 0.00694176 16.0357 0.0182391 16.0423C0.0313575 16.05 0.045748 16.0505 0.0577059 16.0411C0.314505 15.8395 3.31404 13.5027 5.7731 12.413C5.85279 12.3777 5.94371 12.3637 6.03058 12.3709C6.55696 12.4144 6.63054 13.0882 6.15425 13.3165C3.91096 14.3917 2.15886 15.4989 1.30902 16.067C1.04517 16.2433 1.18015 16.7168 1.43122 16.9109C1.5809 17.0266 1.67174 16.9497 1.83394 16.8523C2.74238 16.3065 5.82319 14.5242 9.21332 13.3295C9.39811 13.2643 9.60459 13.2751 9.7798 13.3628C10.3438 13.6451 10.2107 14.415 9.61125 14.611C6.65874 15.5764 3.98701 16.8278 2.84014 17.3908C2.5355 17.5404 2.46026 17.9346 2.65015 18.2158C2.72029 18.3197 2.78717 18.4261 2.8508 18.5349C2.87473 18.5758 2.92513 18.5941 2.96874 18.5756C6.56355 17.0373 10.3337 16.0841 11.8153 15.7398C12.2119 15.6476 12.6206 15.7918 12.8291 16.1416C13.1746 16.7213 12.761 17.4314 12.095 17.5405C10.4799 17.805 7.51387 18.3779 3.99516 19.4648C3.64708 19.5723 3.53529 20.2341 3.60804 20.5911C3.6876 20.9815 4.02729 20.9609 4.41791 20.8825C5.85996 20.5932 9.21905 19.9775 12.6209 19.7703C13.3508 19.7259 13.9748 20.2358 13.9546 20.9667C13.9346 21.6916 13.2914 22.2676 12.5663 22.2609C10.0044 22.2375 6.2082 22.4049 4.55409 22.4883C4.09185 22.5116 3.7548 22.5118 3.71424 22.9729C3.66299 23.5554 4.01826 24.4914 4.60212 24.5242C6.00115 24.603 8.50704 24.7832 11.1212 25.1615C12.1874 25.3158 12.84 26.3908 12.4145 27.3804C12.073 28.1746 11.1739 28.5615 10.3413 28.3288C8.09142 27.7001 5.47349 27.0515 3.90897 26.6762C3.28313 26.5262 2.65762 26.8466 2.37086 27.4228C2.0132 28.1414 2.27712 29.0559 3.01023 29.3829C4.8391 30.1986 7.99033 31.63 9.48956 32.4639C9.48992 32.4641 9.4903 32.4642 9.49071 32.4642H9.49238C9.49347 32.4642 9.49416 32.4654 9.49363 32.4663C9.07928 33.0871 8.48679 33.8162 7.95116 34.4402C7.23683 35.2723 6.00513 35.3756 5.12027 34.7277C4.64261 34.3935 3.95481 33.9126 3.2376 33.4113C1.87755 32.4608 0 33.4393 0 35.0986C0 35.5867 0.17442 36.0587 0.491792 36.4294L1.3993 37.4896C2.24893 38.4822 2.11407 39.9873 1.04404 40.7371C0.874038 40.8562 0.703885 40.9732 0.533686 41.088C0.202917 41.3111 0 41.6818 0 42.0808V44.1194C0 44.1751 0.0620962 44.2091 0.108393 44.1782C1.45644 43.2599 2.7884 42.2375 4.08604 41.1086C14.2693 32.2479 18.4422 20.3811 13.4064 14.6041ZM25.9445 15.0942C21.1113 8.5895 13.547 9.51888 11.2909 9.83459C10.2974 9.97381 9.40098 10.1444 8.6836 10.2988C8.31545 10.378 8.35533 10.8992 8.72517 10.9701C8.77308 10.9793 8.81327 10.9775 8.86082 10.9666C9.49487 10.8212 12.7808 10.1101 15.198 10.4267C15.1993 10.4267 15.1993 10.4281 15.1981 10.4282C13.3409 10.6311 10.8125 11.3955 10.5485 11.4761C10.5461 11.477 10.5465 11.4814 10.5489 11.4824C10.5492 11.4826 10.5496 11.4827 10.5499 11.4829C10.55 11.4829 10.5501 11.483 10.5503 11.483C10.5999 11.4974 10.8347 11.5685 11.1871 11.7168C11.9278 12.0287 12.744 12.1603 13.5288 11.9872C14.8384 11.6983 17.0056 11.2952 19.1308 11.2344C19.2463 11.2311 19.2154 11.1892 19.3207 11.2368C20.0282 11.5565 19.9028 12.6029 19.1282 12.6561C17.6559 12.7572 16.3767 12.9311 15.4453 13.0844C14.768 13.1959 14.5165 14.0151 14.9434 14.5526C15.1434 14.8045 15.477 14.9676 15.7958 14.9244C18.6411 14.5386 21.1935 14.5167 22.6526 14.5502C23.472 14.569 24.262 14.951 24.7255 15.627C25.1483 16.242 24.612 17.0195 23.8676 16.9646C21.524 16.7917 19.3695 16.8205 17.9661 16.8757C17.1685 16.907 16.6108 17.7606 16.7799 18.5408C16.9016 19.1024 17.3851 19.5484 17.9596 19.5641C19.3493 19.6022 21.9861 19.742 25.1938 20.2384C26.0424 20.3698 26.7011 20.9994 26.7367 21.8574C26.7874 23.0775 25.5946 23.9578 24.4014 23.6982C22.9472 23.3818 20.9624 22.9968 18.7927 22.7095C17.8143 22.58 16.9542 23.2674 16.7786 24.2386C16.6009 25.2217 17.1688 26.2551 18.1367 26.5025C20.0143 26.9823 22.9706 27.7849 25.1261 28.5923C25.4599 28.7173 25.6326 29.0824 25.5204 29.4207C25.3706 29.8702 25.2083 30.3204 25.034 30.7708C24.4363 32.3154 22.6157 32.9352 21.0922 32.2855C19.7522 31.7141 18.2937 31.1192 17.1405 30.6556C15.9474 30.1759 14.6238 30.6876 14.0166 31.8211C13.3682 33.0317 13.7143 34.6118 14.9008 35.3035C15.8417 35.8521 16.9728 36.5179 18.0543 37.1706C19.503 38.0449 19.8815 39.9575 18.8219 41.2768C18.7443 41.3734 18.6662 41.4698 18.5877 41.5661C17.5491 42.8392 15.6536 42.9346 14.3789 41.8982C13.5844 41.2522 12.7413 40.5803 11.9928 39.9891C10.7292 38.9908 8.90441 39.1879 7.79992 40.3599C7.77087 40.3908 7.74193 40.4214 7.7131 40.4519C6.62164 41.6059 6.54772 43.4053 7.59175 44.6024L11.2231 48.7662C11.3014 48.856 11.2932 48.992 11.2033 49.0703C9.98448 50.0808 8.67145 51.0317 7.56196 51.7938C6.44678 52.5512 4.95222 52.2135 4.23768 51.0704C3.41505 49.7543 2.38827 48.1077 1.75169 47.0753C1.46588 46.6118 0.8401 46.4914 0.394168 46.8039C0.146909 46.9772 0 47.2581 0 47.56V56.9527C0 57.9843 1.07861 58.6625 1.98965 58.1785C5.16477 56.6151 8.24593 54.6314 11.1136 52.3395C12.9516 50.88 14.879 49.168 16.782 47.1914C19.0434 44.8721 21.007 42.4427 22.6456 39.9809C28.8572 30.8132 30.521 21.2539 25.9445 15.0942ZM35.8142 17.3033C35.5025 16.8773 35.1501 16.443 34.7459 16.0565C34.3914 15.7181 34.0454 15.413 33.6819 15.1387C30.7642 12.9393 26.062 11.5403 23.7198 10.942C23.4829 10.8815 23.3867 11.2337 23.5909 11.3682C23.6124 11.3823 23.6045 11.3721 23.6294 11.3785C23.855 11.4363 25.0735 11.7567 26.5716 12.2979C26.9472 12.4335 27.1117 12.9658 26.7191 12.8925C26.3912 12.8313 25.8778 13.1894 26.1095 13.4293C26.3871 13.7167 26.6539 14.0169 26.9055 14.3245C27.013 14.4558 27.1598 14.5461 27.3263 14.5785C28.3287 14.7737 32.0259 15.536 33.9395 16.5093C34.0557 16.5683 34.0327 16.516 34.1223 16.6107C34.9352 17.4699 34.0173 18.7806 32.8831 18.4448C32.4212 18.3081 31.9769 18.185 31.5628 18.0759C30.4148 17.7734 29.4448 18.9335 29.7194 20.0886C29.8544 20.6569 30.2808 21.1315 30.8439 21.287C32.0401 21.6173 34.2035 22.2622 36.1927 23.104C36.8509 23.3825 37.3119 23.9735 37.3997 24.6828C37.5992 26.2948 35.8844 27.3436 34.386 26.7167C33.9106 26.5179 33.4569 26.3355 33.0352 26.1708C31.5969 25.6094 30.0897 26.5988 29.8214 28.1193C29.6227 29.2459 30.1539 30.4467 31.1908 30.9298C32.2353 31.4164 33.5785 32.0564 34.7816 32.6738C35.9539 33.2754 36.5198 34.6145 36.1142 35.8682C36.0627 36.0275 36.01 36.1865 35.9561 36.3451C35.3637 38.0897 33.2733 38.7013 31.6944 37.7516C31.2557 37.4878 30.8337 37.2377 30.438 37.0057C28.9013 36.1047 26.9115 36.777 26.0423 38.3319C25.1955 39.8467 24.3784 41.155 24.3574 41.1887C24.3565 41.1901 24.3581 41.1901 24.3596 41.191C24.4027 41.2208 26.5842 42.7183 28.8974 44.4424C30.1441 45.3715 30.4276 47.1151 29.5046 48.3664C29.1018 48.9124 28.6878 49.4523 28.2631 49.9858C27.2037 51.3166 25.2144 51.4174 23.9458 50.2843C23.4281 49.8219 22.8812 49.3344 22.3672 48.8768C21.1173 47.7638 19.204 47.8975 18.0453 49.1051C17.606 49.563 17.156 50.0172 16.6954 50.4674C15.5122 51.6239 15.3913 53.5111 16.4868 54.7509L19.8622 58.5709C19.8628 58.5718 19.863 58.5727 19.8622 58.5733C18.2106 59.9329 16.5616 61.136 15.2858 62.0242C13.9781 62.9346 12.2059 62.5814 11.2883 61.2787L10.2466 59.8C9.26759 58.4103 7.31527 58.0903 5.86921 58.9839C4.56507 59.7898 2.79906 60.8019 0.643912 61.8517C0.25252 62.0424 0 62.4385 0 62.8739C0 63.4958 0.504194 64 1.12615 64H16.4268C17.0802 64 17.7207 63.7856 18.236 63.3839C37.0807 48.6959 43.6863 28.0748 35.8142 17.3033ZM33.2364 64C34.0903 64 34.9066 63.6387 35.4621 62.9903C39.6221 58.1341 43.1451 52.5227 45.3185 46.5422C47.3361 40.9898 48.4345 34.2087 46.6476 28.1768C46.5281 27.779 46.3935 27.3776 46.237 26.9743C45.6659 25.4989 44.9252 24.2127 44.1196 23.2024C42.3562 21.2313 40.4032 19.4343 38.2884 17.8424C38.0243 17.6436 37.664 18.0046 37.8328 18.2888C37.8527 18.3223 37.8767 18.3493 37.9078 18.3727C38.0937 18.5128 38.8264 19.0719 39.7359 19.86C40.3495 20.3917 39.7694 21.0733 39.0424 20.7117C39.0354 20.7086 39.0274 20.7161 39.0303 20.7232C39.6409 22.2328 39.9687 23.5689 40.1207 24.3C40.1982 24.6729 40.4234 24.9901 40.7546 25.1783C41.6222 25.6714 43.4381 26.7651 45.2187 28.2233C45.5624 28.5047 45.7964 28.8982 45.8757 29.3353C45.9061 29.5027 45.9345 29.6704 45.9608 29.8384C46.2007 31.3695 43.3102 31.436 42.0203 30.577C40.8682 29.8096 40.4809 31.3426 40.2959 32.7144C40.2463 33.0817 40.1903 33.4484 40.1281 33.8139C39.9533 34.841 40.3786 35.8904 41.2278 36.494C42.0164 37.0545 43.0571 37.83 44.1602 38.7504C44.9861 39.4394 45.3294 40.5404 45.0427 41.5771C44.9328 41.9745 44.8031 42.4225 44.6552 42.8989C44.1168 44.633 41.014 44.2442 39.598 43.1076C38.226 42.0063 37.2018 43.3675 36.428 44.9475C36.1871 45.4396 35.9184 45.9678 35.6242 46.5165C34.9296 47.8125 35.1693 49.4344 36.2602 50.4203C36.8119 50.919 37.3268 51.3913 37.7785 51.8095C38.8301 52.783 39.0254 54.3724 38.1979 55.5424C37.0157 57.2136 35.7397 58.821 34.3937 60.3526C34.3936 60.3527 34.3935 60.3528 34.3935 60.353C34.3933 60.3537 34.3924 60.354 34.3918 60.3535L31.4383 57.4126C30.4428 56.4213 28.8106 56.5123 27.8825 57.567C26.7388 58.867 25.5415 60.1201 24.3005 61.3192C23.6943 61.9049 23.6132 62.8256 24.1777 63.4515C24.4706 63.7762 24.922 64 25.3593 64H33.2364ZM44.2124 62.4441C43.7747 63.1052 44.2401 64 45.0329 64C45.3576 64 45.6636 63.8366 45.8426 63.5657C52.4075 53.6322 52.7418 44.9009 52.7418 43.2083C52.7418 39.9649 52.1969 36.9851 51.2866 34.6252C51.2864 34.6247 51.2865 34.6249 51.2863 34.6244C51.2823 34.6143 50.6302 32.9331 49.5242 30.8374C49.2491 30.3162 48.5029 30.6432 48.6153 31.2217C48.6457 31.3784 48.6997 31.5276 48.7794 31.6658C49.3769 32.7031 51.0793 35.9347 51.3223 39.4614C51.3225 39.4644 51.319 39.467 51.3172 39.4646C51.2474 39.367 50.5977 38.4611 49.8765 37.5208C49.5482 37.0926 48.8731 37.3204 48.8346 37.8586C48.7459 39.0997 48.5803 40.3349 48.3524 41.5491C48.238 42.1584 48.3956 42.789 48.7898 43.2675C49.271 43.8517 49.9442 44.6927 50.5079 45.4859C50.9323 46.0831 51.0626 46.8301 50.895 47.5433C50.7215 48.2814 50.4527 49.3259 50.0835 50.4838C49.7328 51.5839 47.7174 51.0317 46.9761 50.1463C46.2852 49.3211 45.5832 50.2404 45.1313 51.2172C44.601 52.3634 44.0219 53.5006 43.4062 54.6094C42.7756 55.7449 42.8822 57.1576 43.7115 58.1572C44.1067 58.6337 44.5211 59.14 44.8606 59.5704C45.2586 60.0749 45.2829 60.7635 44.9426 61.3087C44.7008 61.6963 44.4584 62.0724 44.2124 62.4441ZM50.646 64C49.3201 64 48.4674 62.5836 49.0484 61.3917C49.8979 59.649 50.7176 57.8082 51.3366 56.1591C51.3373 56.1573 51.3392 56.1573 51.3398 56.1591C51.6125 56.8814 52.6937 56.8608 52.8603 56.1069C53.2439 54.3712 53.5338 52.5948 53.7232 50.7844C53.7232 50.7841 53.7233 50.7838 53.7234 50.7835C53.7236 50.7827 53.7236 50.7819 53.7234 50.7811C53.6429 50.4634 53.4809 49.971 53.3695 49.6188C53.3441 49.5385 53.3157 49.5746 53.332 49.492C53.4496 48.8949 54.3447 48.787 54.3546 49.3955C54.3583 49.6173 54.3601 49.8395 54.3601 50.0619C54.3601 53.3139 53.9758 56.5058 53.2326 59.5879C52.9544 60.6928 52.632 61.7844 52.2822 62.836C52.0487 63.5377 51.3855 64 50.646 64Z" fill="#1414D2"/>
</svg>
