<svg width="32" height="24" viewBox="0 0 32 24" fill="none" xmlns="http://www.w3.org/2000/svg">
<g clip-path="url(#clip0_5088_6059)">
<path d="M0 0H32V24H0" fill="#BD3D44"/>
<path d="M0 2.765H32H0ZM0 6.45H32H0ZM0 10.15H32H0ZM0 13.85H32H0ZM0 17.55H32H0ZM0 21.25H32H0Z" fill="black"/>
<path d="M32 22.175H0V20.325H32V22.175ZM32 18.475H0V16.625H32V18.475ZM32 14.775H0V12.925H32V14.775ZM32 11.075H0V9.225H32V11.075ZM32 7.375H0V5.525H32V7.375ZM32 3.69H0V1.84H32V3.69Z" fill="white"/>
<path d="M0 0H18.24V12.925H0" fill="#192F5D"/>
<path d="M1.49999 0.549988L1.33499 1.04999H0.799988L1.22999 1.36499L1.04999 1.89999L1.49999 1.56499L1.94999 1.89999L1.76999 1.36499L2.19999 1.04999H1.66499L1.49999 0.549988Z" fill="white"/>
<path d="M4.54999 0.549988L4.38499 1.04999H3.84999L4.27999 1.36499L4.09999 1.89999L4.54999 1.56499L4.99999 1.89999L4.81999 1.36499L5.24999 1.04999H4.71499L4.54999 0.549988Z" fill="white"/>
<path d="M7.59999 0.549988L7.43499 1.04999H6.89999L7.32999 1.36499L7.14999 1.89999L7.59999 1.56499L8.04999 1.89999L7.86999 1.36499L8.29999 1.04999H7.76499L7.59999 0.549988Z" fill="white"/>
<path d="M10.65 0.549988L10.485 1.04999H9.94999L10.38 1.36499L10.2 1.89999L10.65 1.56499L11.1 1.89999L10.92 1.36499L11.35 1.04999H10.815L10.65 0.549988Z" fill="white"/>
<path d="M13.7 0.549988L13.535 1.04999H13L13.43 1.36499L13.25 1.89999L13.7 1.56499L14.15 1.89999L13.97 1.36499L14.4 1.04999H13.865L13.7 0.549988Z" fill="white"/>
<path d="M16.43 1.36499L16.25 1.89999L16.7 1.56499L17.15 1.89999L16.97 1.36499L17.4 1.04999H16.865L16.7 0.549988L16.535 1.04999H16L16.43 1.36499Z" fill="white"/>
<path d="M3.04999 1.84999L2.88499 2.34999H2.34999L2.77999 2.66499L2.59999 3.19999L3.04999 2.86499L3.49999 3.19999L3.31999 2.66499L3.74999 2.34999H3.21499L3.04999 1.84999Z" fill="white"/>
<path d="M6.09999 1.84999L5.93499 2.34999H5.39999L5.82999 2.66499L5.64999 3.19999L6.09999 2.86499L6.54999 3.19999L6.36999 2.66499L6.79999 2.34999H6.26499L6.09999 1.84999Z" fill="white"/>
<path d="M9.14999 1.84999L8.98499 2.34999H8.44999L8.87999 2.66499L8.69999 3.19999L9.14999 2.86499L9.59999 3.19999L9.41999 2.66499L9.84999 2.34999H9.31499L9.14999 1.84999Z" fill="white"/>
<path d="M12.15 1.84999L11.985 2.34999H11.45L11.88 2.66499L11.7 3.19999L12.15 2.86499L12.6 3.19999L12.42 2.66499L12.85 2.34999H12.315L12.15 1.84999Z" fill="white"/>
<path d="M15.2 1.84999L15.035 2.34999H14.5L14.93 2.66499L14.75 3.19999L15.2 2.86499L15.65 3.19999L15.47 2.66499L15.9 2.34999H15.365L15.2 1.84999Z" fill="white"/>
<path d="M1.49999 3.14999L1.33499 3.64999H0.799988L1.22999 3.96499L1.04999 4.49999L1.49999 4.16499L1.94999 4.49999L1.76999 3.96499L2.19999 3.64999H1.66499L1.49999 3.14999Z" fill="white"/>
<path d="M4.54999 3.14999L4.38499 3.64999H3.84999L4.27999 3.96499L4.09999 4.49999L4.54999 4.16499L4.99999 4.49999L4.81999 3.96499L5.24999 3.64999H4.71499L4.54999 3.14999Z" fill="white"/>
<path d="M7.59999 3.14999L7.43499 3.64999H6.89999L7.32999 3.96499L7.14999 4.49999L7.59999 4.16499L8.04999 4.49999L7.86999 3.96499L8.29999 3.64999H7.76499L7.59999 3.14999Z" fill="white"/>
<path d="M10.65 3.14999L10.485 3.64999H9.94999L10.38 3.96499L10.2 4.49999L10.65 4.16499L11.1 4.49999L10.92 3.96499L11.35 3.64999H10.815L10.65 3.14999Z" fill="white"/>
<path d="M13.7 3.14999L13.535 3.64999H13L13.43 3.96499L13.25 4.49999L13.7 4.16499L14.15 4.49999L13.97 3.96499L14.4 3.64999H13.865L13.7 3.14999Z" fill="white"/>
<path d="M16.7 3.14999L16.535 3.64999H16L16.43 3.96499L16.25 4.49999L16.7 4.16499L17.15 4.49999L16.97 3.96499L17.4 3.64999H16.865L16.7 3.14999Z" fill="white"/>
<path d="M3.04999 4.44999L2.88499 4.94999H2.34999L2.77999 5.26499L2.59999 5.79999L3.04999 5.46499L3.49999 5.79999L3.31999 5.26499L3.74999 4.94999H3.21499L3.04999 4.44999Z" fill="white"/>
<path d="M6.09999 4.44999L5.93499 4.94999H5.39999L5.82999 5.26499L5.64999 5.79999L6.09999 5.46499L6.54999 5.79999L6.36999 5.26499L6.79999 4.94999H6.26499L6.09999 4.44999Z" fill="white"/>
<path d="M9.14999 4.44999L8.98499 4.94999H8.44999L8.87999 5.26499L8.69999 5.79999L9.14999 5.46499L9.59999 5.79999L9.41999 5.26499L9.84999 4.94999H9.31499L9.14999 4.44999Z" fill="white"/>
<path d="M12.15 4.44999L11.985 4.94999H11.45L11.88 5.26499L11.7 5.79999L12.15 5.46499L12.6 5.79999L12.42 5.26499L12.85 4.94999H12.315L12.15 4.44999Z" fill="white"/>
<path d="M15.2 4.44999L15.035 4.94999H14.5L14.93 5.26499L14.75 5.79999L15.2 5.46499L15.65 5.79999L15.47 5.26499L15.9 4.94999H15.365L15.2 4.44999Z" fill="white"/>
<path d="M1.49999 5.74999L1.33499 6.24999H0.799988L1.22999 6.56499L1.04999 7.09999L1.49999 6.76499L1.94999 7.09999L1.76999 6.56499L2.19999 6.24999H1.66499L1.49999 5.74999Z" fill="white"/>
<path d="M4.54999 5.74999L4.38499 6.24999H3.84999L4.27999 6.56499L4.09999 7.09999L4.54999 6.76499L4.99999 7.09999L4.81999 6.56499L5.24999 6.24999H4.71499L4.54999 5.74999Z" fill="white"/>
<path d="M7.59999 5.74999L7.43499 6.24999H6.89999L7.32999 6.56499L7.14999 7.09999L7.59999 6.76499L8.04999 7.09999L7.86999 6.56499L8.29999 6.24999H7.76499L7.59999 5.74999Z" fill="white"/>
<path d="M10.65 5.74999L10.485 6.24999H9.94999L10.38 6.56499L10.2 7.09999L10.65 6.76499L11.1 7.09999L10.92 6.56499L11.35 6.24999H10.815L10.65 5.74999Z" fill="white"/>
<path d="M13.7 5.74999L13.535 6.24999H13L13.43 6.56499L13.25 7.09999L13.7 6.76499L14.15 7.09999L13.97 6.56499L14.4 6.24999H13.865L13.7 5.74999Z" fill="white"/>
<path d="M16.7 5.74999L16.535 6.24999H16L16.43 6.56499L16.25 7.09999L16.7 6.76499L17.15 7.09999L16.97 6.56499L17.4 6.24999H16.865L16.7 5.74999Z" fill="white"/>
<path d="M3.04999 7.04999L2.88499 7.54999H2.34999L2.77999 7.86499L2.59999 8.39999L3.04999 8.06499L3.49999 8.39999L3.31999 7.86499L3.74999 7.54999H3.21499L3.04999 7.04999Z" fill="white"/>
<path d="M6.09999 7.04999L5.93499 7.54999H5.39999L5.82999 7.86499L5.64999 8.39999L6.09999 8.06499L6.54999 8.39999L6.36999 7.86499L6.79999 7.54999H6.26499L6.09999 7.04999Z" fill="white"/>
<path d="M9.14999 7.04999L8.98499 7.54999H8.44999L8.87999 7.86499L8.69999 8.39999L9.14999 8.06499L9.59999 8.39999L9.41999 7.86499L9.84999 7.54999H9.31499L9.14999 7.04999Z" fill="white"/>
<path d="M12.15 7.04999L11.985 7.54999H11.45L11.88 7.86499L11.7 8.39999L12.15 8.06499L12.6 8.39999L12.42 7.86499L12.85 7.54999H12.315L12.15 7.04999Z" fill="white"/>
<path d="M15.2 7.04999L15.035 7.54999H14.5L14.93 7.86499L14.75 8.39999L15.2 8.06499L15.65 8.39999L15.47 7.86499L15.9 7.54999H15.365L15.2 7.04999Z" fill="white"/>
<path d="M1.49999 8.29999L1.33499 8.79999H0.799988L1.22999 9.11499L1.04999 9.64999L1.49999 9.31499L1.94999 9.64999L1.76999 9.11499L2.19999 8.79999H1.66499L1.49999 8.29999Z" fill="white"/>
<path d="M4.54999 8.29999L4.38499 8.79999H3.84999L4.27999 9.11499L4.09999 9.64999L4.54999 9.31499L4.99999 9.64999L4.81999 9.11499L5.24999 8.79999H4.71499L4.54999 8.29999Z" fill="white"/>
<path d="M7.59999 8.29999L7.43499 8.79999H6.89999L7.32999 9.11499L7.14999 9.64999L7.59999 9.31499L8.04999 9.64999L7.86999 9.11499L8.29999 8.79999H7.76499L7.59999 8.29999Z" fill="white"/>
<path d="M10.65 8.29999L10.485 8.79999H9.94999L10.38 9.11499L10.2 9.64999L10.65 9.31499L11.1 9.64999L10.92 9.11499L11.35 8.79999H10.815L10.65 8.29999Z" fill="white"/>
<path d="M13.7 8.29999L13.535 8.79999H13L13.43 9.11499L13.25 9.64999L13.7 9.31499L14.15 9.64999L13.97 9.11499L14.4 8.79999H13.865L13.7 8.29999Z" fill="white"/>
<path d="M16.7 8.29999L16.535 8.79999H16L16.43 9.11499L16.25 9.64999L16.7 9.31499L17.15 9.64999L16.97 9.11499L17.4 8.79999H16.865L16.7 8.29999Z" fill="white"/>
<path d="M3.21499 10.1L3.04999 9.59999L2.88499 10.1H2.34999L2.77999 10.415L2.59999 10.95L3.04999 10.615L3.49999 10.95L3.31999 10.415L3.74999 10.1H3.21499Z" fill="white"/>
<path d="M6.26499 10.1L6.09999 9.59999L5.93499 10.1H5.39999L5.82999 10.415L5.64999 10.95L6.09999 10.615L6.54999 10.95L6.36999 10.415L6.79999 10.1H6.26499Z" fill="white"/>
<path d="M9.31499 10.1L9.14999 9.59999L8.98499 10.1H8.44999L8.87999 10.415L8.69999 10.95L9.14999 10.615L9.59999 10.95L9.41999 10.415L9.84999 10.1H9.31499Z" fill="white"/>
<path d="M12.315 10.1L12.15 9.59999L11.985 10.1H11.45L11.88 10.415L11.7 10.95L12.15 10.615L12.6 10.95L12.42 10.415L12.85 10.1H12.315Z" fill="white"/>
<path d="M15.365 10.1L15.2 9.59999L15.035 10.1H14.5L14.93 10.415L14.75 10.95L15.2 10.615L15.65 10.95L15.47 10.415L15.9 10.1H15.365Z" fill="white"/>
<path d="M1.66499 11.4L1.49999 10.9L1.33499 11.4H0.799988L1.22999 11.715L1.04999 12.25L1.49999 11.915L1.94999 12.25L1.76999 11.715L2.19999 11.4H1.66499Z" fill="white"/>
<path d="M4.71499 11.4L4.54999 10.9L4.38499 11.4H3.84999L4.27999 11.715L4.09999 12.25L4.54999 11.915L4.99999 12.25L4.81999 11.715L5.24999 11.4H4.71499Z" fill="white"/>
<path d="M7.76499 11.4L7.59999 10.9L7.43499 11.4H6.89999L7.32999 11.715L7.14999 12.25L7.59999 11.915L8.04999 12.25L7.86999 11.715L8.29999 11.4H7.76499Z" fill="white"/>
<path d="M10.815 11.4L10.65 10.9L10.485 11.4H9.94999L10.38 11.715L10.2 12.25L10.65 11.915L11.1 12.25L10.92 11.715L11.35 11.4H10.815Z" fill="white"/>
<path d="M13.865 11.4L13.7 10.9L13.535 11.4H13L13.43 11.715L13.25 12.25L13.7 11.915L14.15 12.25L13.97 11.715L14.4 11.4H13.865Z" fill="white"/>
<path d="M16.865 11.4L16.7 10.9L16.535 11.4H16L16.43 11.715L16.25 12.25L16.7 11.915L17.15 12.25L16.97 11.715L17.4 11.4H16.865Z" fill="white"/>
</g>
<defs>
<clipPath id="clip0_5088_6059">
<rect width="32" height="24" rx="3" fill="white"/>
</clipPath>
</defs>
</svg>
