<svg xmlns="http://www.w3.org/2000/svg" width="89" height="80" viewBox="0 0 89 80" fill="none">
  <path d="M10.7452 34.059C11.1283 34.059 11.4301 33.7559 11.4301 33.3696V31.7844H77.0546V36.2639C77.0546 36.6495 77.3557 36.9533 77.7395 36.9533C78.1225 36.9533 78.4243 36.6502 78.4243 36.2639L78.4229 21.8195C78.4229 19.8209 76.8073 18.1946 74.8221 18.1946H73.0835C72.7004 18.1946 72.3986 18.4977 72.3986 18.884C72.3986 19.2697 72.6997 19.5735 73.0835 19.5735H74.8221C76.0546 19.5735 77.054 20.5795 77.054 21.8203V30.4072L11.4295 30.4065V21.8196C11.4295 20.5788 12.4288 19.5728 13.6614 19.5728H53.3824C53.7655 19.5728 54.0673 19.2697 54.0673 18.8833C54.0673 18.4977 53.7662 18.1939 53.3824 18.1939L13.6614 18.1946C11.6761 18.1946 10.0605 19.821 10.0605 21.8195V33.3703C10.0605 33.7424 10.3758 34.059 10.7454 34.059L10.7452 34.059Z" fill="#4F868E"/>
  <path d="M77.739 55.9482C77.356 55.9482 77.0542 56.2513 77.0542 56.6377V76.3886C77.0542 77.6152 76.0548 78.6212 74.8222 78.6212H13.6612C12.4286 78.6212 11.4293 77.6152 11.4293 76.3886V53.1224C11.4293 52.7368 11.1282 52.433 10.7444 52.433C10.3614 52.433 10.0596 52.7361 10.0596 53.1224L10.0603 76.3886C10.0603 78.3735 11.6759 80 13.6611 80H74.8221C76.8075 80 78.423 78.3736 78.423 76.3886V56.6358C78.423 56.2637 78.1219 55.9471 77.7389 55.9471L77.739 55.9482Z" fill="#4F868E"/>
  <path d="M19.6992 24.9904C19.6992 26.3827 20.8222 27.5268 22.1911 27.5268C23.5877 27.5268 24.7108 26.3828 24.7108 24.9904C24.7108 23.598 23.5877 22.4818 22.1911 22.4818C20.8215 22.4818 19.6992 23.5981 19.6992 24.9904Z" fill="#4F868E"/>
  <path d="M13.8262 24.9904C13.8262 26.3827 14.9492 27.5268 16.3317 27.5268C17.7148 27.5268 18.8513 26.3828 18.8513 24.9904C18.8513 23.598 17.7148 22.4818 16.3317 22.4818C14.9486 22.4818 13.8262 23.5981 13.8262 24.9904Z" fill="#4F868E"/>
  <path d="M25.5596 24.9904C25.5596 26.3827 26.6826 27.5268 28.0515 27.5268C29.448 27.5268 30.5711 26.3828 30.5711 24.9904C30.5711 23.598 29.4481 22.4818 28.0515 22.4818C26.6825 22.4818 25.5596 23.5981 25.5596 24.9904Z" fill="#4F868E"/>
  <path d="M71.0427 23.5297C70.6865 24.012 70.0709 24.2191 69.509 24.0398L65.6339 22.772C65.0176 22.5792 64.3879 22.4689 63.7448 22.4689H38.0458C36.4987 22.4689 35.2937 23.847 35.5672 25.4322C35.7863 26.6731 36.9638 27.5133 38.2097 27.5133H70.1942C71.5773 27.5133 72.7138 26.3693 72.7138 24.9769C72.7138 24.1914 72.3442 23.4472 71.7279 23.0062C71.5639 22.9101 71.2904 23.1855 71.0438 23.5298L71.0427 23.5297Z" fill="#4F868E"/>
  <path d="M54.8729 59.7785V37.8492C54.8729 36.3331 53.6404 35.0922 52.1342 35.0922H18.8904C18.5074 35.0922 18.2056 35.3953 18.2056 35.7817C18.2056 36.1673 18.5067 36.4711 18.8904 36.4711H52.1342C52.8876 36.4711 53.5032 37.0915 53.5032 37.8492V59.7785C53.5032 60.537 52.8869 61.1566 52.1342 61.1566L16.5492 61.1573C15.7958 61.1573 15.1802 60.537 15.1802 59.7792V51.0131C15.1802 50.6275 14.8792 50.3237 14.4954 50.3237C14.1123 50.3237 13.8105 50.6268 13.8105 51.0131V59.7792C13.8105 61.2954 15.0431 62.5362 16.5493 62.5362H52.1343C53.6545 62.5355 54.873 61.2947 54.873 59.7785L54.8729 59.7785Z" fill="#4F868E"/>
  <path d="M72.5502 35.0937H58.2836C57.4072 35.0937 56.709 35.8102 56.709 36.6789V46.1478C56.709 47.0158 57.4073 47.733 58.2836 47.733H67.1151L72.5782 35.0936H72.55L72.5502 35.0937Z" fill="#4F868E"/>
  <path d="M42.2355 48.8211C42.2355 44.4378 38.7032 40.8817 34.3629 40.8817C30.0087 40.8817 26.4629 44.4376 26.4629 48.8211C26.4629 53.1902 30.0094 56.7462 34.3629 56.7462C38.7031 56.7462 42.2355 53.1904 42.2355 48.8211ZM32.8294 53.2315C32.5693 53.2315 32.3092 53.1625 32.076 53.0387C31.5417 52.7492 31.2272 52.212 31.2272 51.6051V46.023C31.2272 45.4303 31.5424 44.8789 32.076 44.6036C32.5962 44.314 33.24 44.3417 33.7326 44.6861L37.8402 47.4701C38.2918 47.7732 38.5519 48.2698 38.5519 48.8069C38.5519 49.3583 38.2918 49.8542 37.8402 50.158L33.7326 52.9562C33.4591 53.1348 33.1446 53.2315 32.8294 53.2315L32.8294 53.2315Z" fill="#69A0A7"/>
  <path d="M68.264 49.0563H57.9681C57.585 49.0563 57.2832 49.3594 57.2832 49.7457C57.2832 50.1313 57.5843 50.4351 57.9681 50.4351H68.264C68.647 50.4351 68.9488 50.132 68.9488 49.7457C68.9488 49.3594 68.6477 49.0563 68.264 49.0563Z" fill="#4F868E"/>
  <path d="M65.4158 53.0396C65.7989 53.0396 66.1007 52.7365 66.1007 52.3502C66.1007 51.9646 65.7996 51.6608 65.4158 51.6608H57.9808C57.5977 51.6608 57.2959 51.9639 57.2959 52.3502C57.2959 52.7358 57.597 53.0396 57.9808 53.0396H65.4158Z" fill="#4F868E"/>
  <path d="M57.9817 72.35C57.5987 72.35 57.2969 72.6673 57.2969 73.0394C57.2969 73.425 57.598 73.7288 57.9817 73.7288H65.4168C65.7999 73.7288 66.1016 73.4257 66.1016 73.0394C66.1016 72.6673 65.8006 72.35 65.4168 72.35H57.9817Z" fill="#4F868E"/>
  <path d="M71.6868 70.4338C71.6868 70.0482 71.3857 69.7444 71.002 69.7444H57.9807C57.5977 69.7444 57.2959 70.0475 57.2959 70.4338C57.2959 70.8194 57.597 71.1232 57.9807 71.1232H71.002C71.3857 71.1225 71.6868 70.8194 71.6868 70.4338Z" fill="#4F868E"/>
  <path d="M74.1932 66.8511V57.368C74.1932 56.5 73.4949 55.7828 72.6186 55.7828H58.2836C57.4072 55.7828 56.709 56.4993 56.709 57.368V66.8511C56.709 67.7191 57.4073 68.4228 58.2836 68.4228H72.6193C73.495 68.4221 74.1932 67.7191 74.1932 66.8511H74.1932Z" fill="#4F868E"/>
  <path d="M52.628 65.4869C52.628 65.1013 52.3269 64.7975 51.9432 64.7975H36.8823V64.039C36.8823 63.6534 36.5812 63.3496 36.1975 63.3496C35.8144 63.3496 35.5126 63.6527 35.5126 64.039V64.7975H16.7141C16.3311 64.7975 16.0293 65.1006 16.0293 65.4869C16.0293 65.8725 16.3304 66.1763 16.7141 66.1763H35.5126V66.9205C35.5126 67.3061 35.8137 67.6099 36.1975 67.6099C36.5805 67.6099 36.8823 67.3068 36.8823 66.9205V66.1763H51.9432C52.3262 66.1756 52.628 65.8725 52.628 65.4869Z" fill="#4F868E"/>
  <path d="M40.2087 69.8418C40.2087 69.4561 39.9076 69.1523 39.5239 69.1523L15.1673 69.1531C14.7842 69.1531 14.4824 69.4561 14.4824 69.8425C14.4824 70.2281 14.7835 70.5319 15.1673 70.5319H39.5257C39.9087 70.5312 40.2098 70.2146 40.2098 69.8418H40.2087Z" fill="#4F868E"/>
  <path d="M15.1663 72.1569C14.7832 72.1569 14.4814 72.46 14.4814 72.8463C14.4814 73.2319 14.7825 73.5357 15.1663 73.5357H33.0753C33.4584 73.5357 33.7602 73.2326 33.7602 72.8463C33.7602 72.4607 33.4591 72.1569 33.0753 72.1569H15.1663Z" fill="#4F868E"/>
  <path d="M88.8427 43.1842C88.637 42.7565 88.2815 42.4257 87.8433 42.2607L75.0412 37.4504C74.1238 37.1196 73.1244 37.5742 72.7684 38.5119L69.6877 46.8369C69.3456 47.7604 69.8107 48.7941 70.7146 49.1249L74.5897 50.572L75.3566 54.6246C75.3976 54.8587 75.5622 55.0657 75.7813 55.1482C75.8633 55.176 75.9453 55.1895 76.028 55.1895C76.1785 55.1895 76.3291 55.1347 76.4528 55.0379L79.6706 52.488L83.5316 53.9351C84.4355 54.266 85.4625 53.7971 85.8044 52.8736L88.8851 44.5487H88.8985C89.0483 44.1076 89.0342 43.6252 88.8427 43.1841L88.8427 43.1842ZM83.5165 45.8856C82.7221 48.0221 78.8335 49.1663 78.3819 49.2899C78.3275 49.3035 78.259 49.3177 78.2038 49.3177C77.9847 49.3177 77.7656 49.2074 77.6285 49.0004C77.3819 48.6283 75.1641 45.1961 75.9719 43.0461C76.4511 41.7505 77.8753 41.0889 79.1488 41.5712C79.6966 41.7783 80.1348 42.1504 80.4224 42.6327C80.9426 42.4534 81.5179 42.4534 82.0656 42.6605C83.0515 43.0326 83.6678 43.9973 83.6678 45.0175C83.6671 45.3071 83.6261 45.596 83.5166 45.8855L83.5165 45.8856Z" fill="#69A0A7"/>
  <path d="M20.6162 43.0748L16.0428 34.8737C15.8103 34.4461 15.4131 34.1295 14.9474 33.9915C14.4682 33.8677 13.9756 33.9224 13.5508 34.1565L0.94029 41.2684C0.515524 41.5025 0.201034 41.9024 0.063908 42.3712C-0.0590672 42.8536 -0.00464753 43.3495 0.227874 43.7771L4.8012 51.9918C5.03373 52.4194 5.43092 52.736 5.89667 52.8598C6.06064 52.9146 6.23873 52.9289 6.40341 52.9289C6.7045 52.9289 7.01969 52.8598 7.29322 52.6948L19.9037 45.5963C20.7936 45.1011 21.1088 43.9706 20.6162 43.0748L20.6162 43.0748ZM13.2363 43.1851L11.5111 46.6307C11.2786 47.0996 10.8128 47.3892 10.2926 47.4027H10.2651C9.75834 47.4027 9.2933 47.1273 9.03251 46.6862L6.9511 42.9233C6.69102 42.4686 6.70444 41.903 6.99209 41.4761C7.2656 41.035 7.75892 40.7732 8.27909 40.828L12.099 41.1453C12.5648 41.1866 12.9754 41.4484 13.2079 41.8618C13.4412 42.2616 13.4412 42.7582 13.2362 43.1851L13.2363 43.1851Z" fill="#69A0A7"/>
  <path d="M49.3272 15.135L68.8114 22.5229C68.88 22.5506 68.9619 22.5642 69.0439 22.5642C69.1401 22.5642 69.2355 22.5364 69.3316 22.4951C69.4955 22.4261 69.6192 22.2881 69.6878 22.1095L74.4661 9.34644C74.5891 9.00209 74.4117 8.60225 74.0689 8.4642L54.5847 1.07636C54.4208 1.02157 54.2285 1.02157 54.0646 1.1041C53.9006 1.17312 53.7635 1.31114 53.7084 1.48972L48.93 14.2528C48.7929 14.5979 48.971 14.997 49.3272 15.135ZM71.918 9.12597L61.0742 13.426L55.7757 3.0058L71.918 9.12597ZM54.4471 3.41925L60.1428 14.6114C60.2657 14.8455 60.499 14.9835 60.7449 14.9835C60.841 14.9835 60.923 14.97 61.005 14.9422L72.6297 10.3247L68.6451 20.979L50.4491 14.0877L54.4471 3.41925Z" fill="#C3DCDE"/>
  <path d="M37.2946 8.9734C37.6366 9.11143 38.0338 8.94565 38.1844 8.60129C38.3215 8.2427 38.1568 7.84286 37.8013 7.69132C36.1581 7.01614 34.3233 7.02965 32.6533 7.7461C30.9826 8.46256 29.6821 9.77238 28.9973 11.4535C28.8602 11.8121 29.0249 12.2119 29.3804 12.3493C29.4624 12.3905 29.5444 12.404 29.6405 12.404C29.9006 12.404 30.1606 12.239 30.2702 11.9764C30.8179 10.6396 31.8448 9.57805 33.2003 9.01306C34.5283 8.44957 35.9799 8.43605 37.2946 8.97322V8.9734Z" fill="#69A0A7"/>
  <path d="M22.7655 9.67636C22.8475 9.7041 22.9436 9.71762 23.0256 9.71762C23.2991 9.71762 23.5599 9.56608 23.6553 9.29002C24.9289 6.1609 27.3247 3.70788 30.419 2.38447C33.4996 1.07536 36.909 1.04762 39.9897 2.30194C40.3318 2.45348 40.729 2.28842 40.8795 1.92983C41.0166 1.57124 40.8519 1.1714 40.5099 1.03408C37.073 -0.371798 33.308 -0.344039 29.8852 1.11661C26.4624 2.59151 23.8057 5.3065 22.3957 8.76637C22.2451 9.12568 22.4232 9.52481 22.7653 9.67635L22.7655 9.67636Z" fill="#69A0A7"/>
  <path d="M39.4709 5.39016C39.6215 5.04582 39.4575 4.63173 39.1013 4.49441C33.9123 2.35794 27.9557 4.90777 25.8342 10.1734C25.6836 10.5178 25.8476 10.9176 26.2038 11.0692C26.2858 11.0969 26.3819 11.1105 26.4639 11.1105C26.724 11.1105 26.9841 10.9589 27.0936 10.6829C28.9418 6.13435 34.0905 3.92885 38.5811 5.7759C38.9373 5.91464 39.3338 5.74887 39.4709 5.39028V5.39016Z" fill="#69A0A7"/>
  <path d="M35.2386 16.9691C35.6768 16.9691 36.1008 16.8866 36.5256 16.7073C38.2098 15.9909 39.0175 14.0335 38.3052 12.3382C37.5935 10.6428 35.6492 9.85732 33.9651 10.5738C32.2809 11.2767 31.4865 13.2339 32.1989 14.9294C32.7191 16.1972 33.9517 16.9691 35.2387 16.9691H35.2386Z" fill="#69A0A7"/>
</svg>