<svg xmlns="http://www.w3.org/2000/svg" width="85" height="80" viewBox="0 0 85 80" fill="none">
  <path d="M43.7683 58.308H20.5437C20.1779 58.308 19.8896 58.5964 19.8896 58.964C19.8896 59.3309 20.1772 59.6199 20.5437 59.6199H43.7683C44.1341 59.6199 44.4224 59.3316 44.4224 58.964C44.4224 58.5964 44.1348 58.308 43.7683 58.308Z" fill="#4F868E"/>
  <path d="M43.7683 62.885H20.5437C20.1779 62.885 19.8896 63.1734 19.8896 63.541C19.8896 63.9079 20.1772 64.197 20.5437 64.197H43.7683C44.1341 64.197 44.4224 63.9086 44.4224 63.541C44.4224 63.1734 44.1348 62.885 43.7683 62.885Z" fill="#4F868E"/>
  <path d="M82.5154 43.3179C78.9716 42.911 75.65 41.7967 72.4463 39.9608V35.8822C72.4463 33.1541 70.5893 30.8855 68.0783 30.2038L68.079 6.57057C68.079 2.95081 65.1367 0 61.5274 0H14.6463C11.037 0 8.09472 2.95081 8.09472 6.57057V11.4752L5.89755 11.4759C2.64127 11.4759 0 14.1248 0 17.3777V66.8588C0 70.6228 3.0598 73.6786 6.81288 73.6786H56.388C57.6954 74.8985 59.1339 76 60.6904 76.9707L64.8882 79.5674C65.3459 79.8558 65.8562 80 66.3658 80C66.8761 80 67.3858 79.8558 67.8306 79.5803L72.0541 76.9705C80.1616 71.9475 85 63.2261 85 53.6649V46.1106C85 44.6809 83.9409 43.4745 82.5153 43.3168L82.5154 43.3179ZM62.0367 18.8199V25.469C62.0367 26.4133 61.278 27.1736 60.337 27.1736H47.3256C46.3839 27.1736 45.6259 26.4127 45.6259 25.469V18.8199C45.6259 17.8755 46.3846 17.1018 47.3256 17.1018H60.337C61.2787 17.1018 62.0367 17.8755 62.0367 18.8199ZM20.2031 7.4882C20.2031 6.51744 20.9746 5.74375 21.9425 5.74375H54.2288C55.1968 5.74375 55.9812 6.51751 55.9812 7.4882V12.5634C55.9812 13.5206 55.1968 14.3078 54.2288 14.3078H21.9425C20.9746 14.3078 20.2031 13.5212 20.2031 12.5634V7.4882ZM15.9925 17.6392H41.3356C42.0551 17.6392 42.643 18.2295 42.643 18.9505C42.643 19.6721 42.0545 20.2617 41.3356 20.2617L15.9925 20.2624C15.2729 20.2624 14.685 19.6721 14.685 18.9511C14.685 18.2295 15.2729 17.6392 15.9925 17.6392V17.6392ZM15.9925 24.551H41.3356C42.0551 24.551 42.643 25.1413 42.643 25.8623C42.643 26.5839 42.0545 27.1735 41.3356 27.1735H15.9925C15.2729 27.1735 14.685 26.5832 14.685 25.8623C14.685 25.1406 15.2729 24.551 15.9925 24.551ZM6.78611 72.3667H6.77329C3.7655 72.3539 1.30705 69.8884 1.30705 66.8583V17.3772C1.30705 14.8461 3.37324 12.7867 5.89701 12.7867H8.09418V58.5437C8.09418 61.2454 9.79384 63.6717 12.2786 64.6418V66.8582C12.2786 69.9012 9.80734 72.3666 6.78607 72.3666L6.78611 72.3667ZM10.7882 72.3667C12.475 71.1211 13.5867 69.1146 13.5867 66.8583V64.1566V64.1302L13.586 35.8819C13.586 33.3509 15.6394 31.2915 18.176 31.2915H66.5605C69.0842 31.2915 71.1376 33.3509 71.1376 35.8819V39.174C70.1177 38.518 69.1107 37.7971 68.1034 36.997C67.0963 36.1839 65.6322 36.1839 64.6116 36.997C60.1134 40.6559 55.4053 42.7281 50.2273 43.3185C48.8023 43.4756 47.7298 44.6819 47.7298 46.1116V53.6658C47.7298 60.7475 50.3975 67.3709 55.0657 72.3669L10.7882 72.3667ZM80.4618 53.6657C80.4618 61.6397 76.4212 68.9049 69.6603 73.1015L66.365 75.1344L63.0697 73.1015C56.3088 68.905 52.2682 61.6392 52.2682 53.6657V47.6327C57.3159 46.7933 61.9323 44.7604 66.365 41.4162C70.7977 44.7604 75.4141 46.7933 80.4618 47.6327V53.6657Z" fill="#4F868E"/>
  <path d="M61.2266 54.6894C61.2266 56.3548 62.0372 57.9023 63.3582 58.8466L61.8807 64.0659C61.8287 64.2629 61.8678 64.4728 61.9853 64.6299C62.1162 64.8004 62.2992 64.8918 62.5084 64.8918H70.2237C70.4329 64.8918 70.6293 64.7998 70.7468 64.6299C70.8777 64.4728 70.9169 64.2629 70.8514 64.0659L69.3866 58.8466C70.7076 57.9023 71.5048 56.3547 71.5048 54.6894C71.5048 51.8307 69.2031 49.5093 66.3654 49.5093C63.5283 49.5086 61.2266 51.83 61.2266 54.6894H61.2266Z" fill="#C3DCDE"/>
</svg>