<svg xmlns="http://www.w3.org/2000/svg" width="81" height="81" viewBox="0 0 81 81" fill="none">
  <path d="M41.5765 24.1689H59.0913C60.7291 24.1689 62.0623 22.8328 62.0623 21.1891V3.6275C62.0623 1.98372 60.7299 0.64769 59.0913 0.64769L41.5765 0.646973C39.9387 0.646973 38.6055 1.98308 38.6055 3.62678V21.1891C38.6055 22.8329 39.9379 24.1689 41.5765 24.1689V24.1689ZM60.0104 11.9337V21.1889C60.0104 21.6981 59.5977 22.1126 59.0899 22.1126H46.264L46.6588 21.6049L57.0966 8.19426L60.0104 11.9337ZM40.6556 19.211L44.6507 14.0796L47.2812 17.4626L43.6636 22.1135H41.576C41.0682 22.1135 40.6555 21.699 40.6555 21.1898L40.6556 19.211Z" fill="#C3DCDE"/>
  <path d="M78.028 41.2489H60.514C58.8762 41.2489 57.543 42.585 57.543 44.2282V61.7912C57.543 63.4336 58.8754 64.7705 60.514 64.7705H78.0288C79.6666 64.7705 80.9998 63.4344 80.9998 61.7912L80.9991 44.2282C80.9991 42.5851 79.6667 41.2489 78.028 41.2489H78.028ZM78.9485 61.7918C78.9485 62.301 78.5358 62.7148 78.028 62.7148L60.514 62.7141C60.0062 62.7141 59.5936 62.3002 59.5936 61.7911V44.2287C59.5936 43.7116 59.9984 43.3057 60.514 43.3057H78.0288C78.5366 43.3057 78.9492 43.7195 78.9492 44.2287L78.9485 61.7918Z" fill="#4F868E"/>
  <path d="M74.7083 45.0639H71.0092C70.4428 45.0639 69.9836 45.5236 69.9836 46.0923V52.0864C69.2627 51.6074 68.4009 51.3255 67.4732 51.3255C64.9593 51.3255 62.9131 53.3767 62.9131 55.899C62.9131 58.4198 64.9586 60.4717 67.4732 60.4717C69.9886 60.4717 72.0341 58.4205 72.0341 55.899V47.1207H74.7076C75.2741 47.1207 75.7332 46.661 75.7332 46.0923C75.7332 45.5236 75.2748 45.0638 74.7083 45.0638L74.7083 45.0639Z" fill="#C3DCDE"/>
  <path d="M8.932 33.7543H26.4467C28.0846 33.7543 29.4178 32.4182 29.4178 30.7745V13.2129C29.4178 11.5691 28.0854 10.2331 26.4467 10.2331H8.932C7.29417 10.2331 5.96094 11.5692 5.96094 13.2129V30.7745C5.96094 32.4183 7.29408 33.7543 8.932 33.7543ZM8.01224 13.2133C8.01224 12.6955 8.41705 12.2895 8.93271 12.2895H26.4474C26.9552 12.2895 27.3679 12.7041 27.3679 13.2133V30.7749C27.3679 31.284 26.9552 31.6986 26.4474 31.6986H8.93198C8.42419 31.6986 8.01151 31.284 8.01151 30.7749L8.01224 13.2133Z" fill="#4F868E"/>
  <path d="M11.3321 29.2141C11.4902 29.3052 11.6676 29.3518 11.845 29.3518C12.0223 29.3518 12.1997 29.3059 12.3578 29.2141L23.2912 22.8842C23.6088 22.7006 23.804 22.3614 23.804 21.9935C23.804 21.6263 23.6088 21.2863 23.2912 21.1027L12.3578 14.7728C12.0416 14.5899 11.649 14.5899 11.3321 14.7728C11.0146 14.9564 10.8193 15.2956 10.8193 15.6635V28.3225C10.8193 28.6911 11.0146 29.0303 11.3321 29.2139V29.2141Z" fill="#C3DCDE"/>
  <path d="M49.5938 29.0176C48.7935 28.2416 47.7358 27.8027 46.6579 27.8357C46.6257 27.8364 46.5907 27.8357 46.5571 27.8357C44.2741 27.921 42.5162 29.7763 42.5548 32.0505L42.5555 32.1223L34.1876 36.7596C29.0681 39.6012 23.2842 41.1381 17.4604 41.2054L15.5408 41.2334L15.5143 39.16C15.5101 38.8868 15.3992 38.6272 15.2047 38.4371C15.0094 38.2463 14.7183 38.1682 14.4759 38.1452L9.76193 38.2062C9.19548 38.2133 8.74276 38.6802 8.74992 39.2475L8.77638 41.3288L8.73991 41.3295C6.37177 41.3604 4.15963 42.3128 2.50978 44.0097C0.859792 45.7073 -0.0313802 47.9477 0.000844298 50.318L0.0451901 53.7999C0.0773743 56.1702 1.02717 58.3884 2.71872 60.043C4.38301 61.6717 6.56863 62.5638 8.88605 62.5638C8.92682 62.5638 8.9683 62.5631 9.00906 62.5631L10.1484 62.5473L10.1963 66.3814C10.2585 71.0661 12.0015 75.5663 15.1034 79.0534C15.9516 80.0044 17.116 80.5674 18.3826 80.6391C18.4734 80.6441 18.5636 80.647 18.6537 80.647C19.8223 80.647 20.9367 80.2203 21.815 79.4321L24.8997 76.6818C25.1043 76.501 25.2273 76.245 25.2423 75.9732C25.2581 75.6999 25.1651 75.4332 24.9841 75.2295L22.4952 72.4353C20.9832 70.7356 20.1349 68.5424 20.1063 66.2596L20.0541 62.5138C25.087 62.7813 30.0864 64.1296 34.5771 66.4661L43.0565 70.8932L43.0573 70.9506C43.083 73.2298 44.9448 75.0673 47.217 75.0673C47.232 75.0673 47.2463 75.0651 47.2642 75.0673C48.3684 75.0522 49.4042 74.6032 50.1801 73.8029C50.9554 73.0039 51.3745 71.9533 51.3595 70.8466L50.8588 31.9493C50.841 30.842 50.3947 29.8021 49.5944 29.0174L49.5938 29.0176ZM13.4768 40.2149L13.4911 41.2634L10.9507 41.2986L10.8284 41.3L10.814 40.25L13.4768 40.2149ZM8.98091 60.5062C7.18287 60.5572 5.45068 59.8436 4.14962 58.5713C2.85007 57.2983 2.11984 55.5942 2.09476 53.7718L2.05041 50.2899C2.02538 48.4682 2.70913 46.7477 3.97711 45.4445C5.24446 44.14 6.94597 43.4084 8.7705 43.3855L10.7402 43.3575L13.5167 43.3216L13.6304 52.0226L13.7405 60.443L8.98091 60.5062ZM20.9642 73.8043L22.7694 75.8303L20.4492 77.898C19.9107 78.3828 19.2183 78.6302 18.4967 78.5858C17.7765 78.5456 17.1142 78.2243 16.6314 77.6828C13.8584 74.5674 12.3016 70.544 12.2457 66.3542L12.1978 62.5209L14.7562 62.4893C14.7633 62.4893 14.7698 62.4943 14.7776 62.4943H14.7926L17.6441 62.4535L17.7536 62.452C17.8358 62.4492 17.9181 62.447 18.0032 62.4463L18.0547 66.2853C18.0897 69.0637 19.1225 71.7338 20.9642 73.8043L20.9642 73.8043ZM25.0001 47.904C24.6704 47.9671 24.3414 48.0267 24.0096 48.0804C23.9538 48.0905 23.8973 48.0948 23.8422 48.0948C23.3487 48.0948 22.9139 47.7376 22.8316 47.2335C22.7394 46.6733 23.1177 46.144 23.677 46.053C23.9903 46.0006 24.3035 45.9432 24.6175 45.8844C25.1725 45.7812 25.7111 46.1455 25.8162 46.7027C25.9228 47.2593 25.5573 47.7979 25.0001 47.904L25.0001 47.904ZM37.7817 43.2817C35.5967 44.4923 33.2816 45.5207 30.9029 46.3383C30.7927 46.3756 30.6805 46.3935 30.5703 46.3935C30.1441 46.3935 29.7464 46.1253 29.5998 45.6986C29.4167 45.1614 29.702 44.5762 30.2377 44.3926C32.505 43.6144 34.7093 42.6355 36.7905 41.4829C37.2868 41.2061 37.9091 41.3896 38.183 41.8852C38.4576 42.3815 38.2774 43.0069 37.7818 43.2816L37.7817 43.2817ZM48.708 72.3693C48.3147 72.7752 47.7918 73.0026 47.2368 73.0112H47.2147C46.0632 73.0112 45.1191 72.0803 45.1061 70.9257L44.8151 48.7396C44.8179 48.7052 44.8194 48.67 44.8194 48.6363L44.6849 38.1912L44.6055 32.0263C44.5855 30.8795 45.4652 29.9465 46.6102 29.8912C46.6324 29.8934 46.6553 29.8934 46.6774 29.8912V29.892C47.2682 29.9128 47.7588 30.0999 48.1644 30.4915C48.5706 30.8903 48.798 31.4181 48.8059 31.9775L49.3065 70.8748C49.3151 71.4335 49.1013 71.9642 48.7079 72.3701L48.708 72.3693Z" fill="#4F868E"/>
</svg>