<svg width="21" height="20" viewBox="0 0 21 20" fill="none" xmlns="http://www.w3.org/2000/svg">
<g id="icon / outline / exclamation-circle" clip-path="url(#clip0_4965_11816)">
<g id="Vector">
<path d="M10.3334 18.75C8.01273 18.75 5.78713 17.8281 4.14619 16.1872C2.50525 14.5462 1.58337 12.3206 1.58337 10C1.58337 7.67936 2.50525 5.45376 4.14619 3.81282C5.78713 2.17187 8.01273 1.25 10.3334 1.25C12.654 1.25 14.8796 2.17187 16.5206 3.81282C18.1615 5.45376 19.0834 7.67936 19.0834 10C19.0834 12.3206 18.1615 14.5462 16.5206 16.1872C14.8796 17.8281 12.654 18.75 10.3334 18.75ZM10.3334 20C12.9855 20 15.5291 18.9464 17.4044 17.0711C19.2798 15.1957 20.3334 12.6522 20.3334 10C20.3334 7.34784 19.2798 4.8043 17.4044 2.92893C15.5291 1.05357 12.9855 0 10.3334 0C7.68121 0 5.13767 1.05357 3.26231 2.92893C1.38694 4.8043 0.333374 7.34784 0.333374 10C0.333374 12.6522 1.38694 15.1957 3.26231 17.0711C5.13767 18.9464 7.68121 20 10.3334 20Z" fill="#B91C1C"/>
<path d="M9.08582 13.7501C9.08582 13.586 9.11815 13.4234 9.18097 13.2718C9.24378 13.1201 9.33586 12.9823 9.45193 12.8663C9.56801 12.7502 9.7058 12.6581 9.85746 12.5953C10.0091 12.5325 10.1717 12.5001 10.3358 12.5001C10.5 12.5001 10.6625 12.5325 10.8142 12.5953C10.9658 12.6581 11.1036 12.7502 11.2197 12.8663C11.3358 12.9823 11.4278 13.1201 11.4907 13.2718C11.5535 13.4234 11.5858 13.586 11.5858 13.7501C11.5858 14.0817 11.4541 14.3996 11.2197 14.634C10.9853 14.8685 10.6673 15.0001 10.3358 15.0001C10.0043 15.0001 9.68635 14.8685 9.45193 14.634C9.21751 14.3996 9.08582 14.0817 9.08582 13.7501ZM9.20832 6.2439C9.19167 6.0862 9.20836 5.92676 9.25732 5.77593C9.30627 5.6251 9.38638 5.48625 9.49246 5.36838C9.59855 5.25051 9.72822 5.15626 9.87308 5.09175C10.0179 5.02724 10.1747 4.9939 10.3333 4.9939C10.4919 4.9939 10.6487 5.02724 10.7936 5.09175C10.9384 5.15626 11.0681 5.25051 11.1742 5.36838C11.2802 5.48625 11.3604 5.6251 11.4093 5.77593C11.4583 5.92676 11.475 6.0862 11.4583 6.2439L11.0208 10.6276C11.0061 10.7999 10.9273 10.9603 10.8 11.0772C10.6727 11.1941 10.5062 11.259 10.3333 11.259C10.1605 11.259 9.99393 11.1941 9.86662 11.0772C9.73931 10.9603 9.66051 10.7999 9.64581 10.6276L9.20832 6.2439Z" fill="#B91C1C"/>
</g>
</g>
<defs>
<clipPath id="clip0_4965_11816">
<rect width="20" height="20" fill="white" transform="translate(0.333374)"/>
</clipPath>
</defs>
</svg>
