<svg width="21" height="20" viewBox="0 0 21 20" fill="none" xmlns="http://www.w3.org/2000/svg">
<g id="icon / outline / eye-slash" clip-path="url(#clip0_4965_10152)">
<g id="Vector">
<path d="M17.0321 14.0475C19.1583 12.15 20.3333 10 20.3333 10C20.3333 10 16.5833 3.125 10.3333 3.125C9.13271 3.12814 7.94559 3.37833 6.84583 3.86L7.80833 4.82375C8.61799 4.53031 9.47214 4.37851 10.3333 4.375C12.9833 4.375 15.1821 5.835 16.7933 7.44625C17.5696 8.2251 18.2648 9.08073 18.8683 10C18.7967 10.1083 18.7154 10.2283 18.6246 10.36C18.2058 10.96 17.5871 11.76 16.7933 12.5538C16.5875 12.7604 16.3721 12.9629 16.1471 13.1613L17.0321 14.0475Z" fill="#64748B"/>
<path d="M14.4551 11.4701C14.734 10.6899 14.7857 9.84657 14.604 9.03816C14.4224 8.22975 14.0149 7.48954 13.429 6.90366C12.8432 6.31778 12.103 5.91031 11.2945 5.72867C10.4861 5.54704 9.64277 5.59869 8.86257 5.87764L9.89132 6.90639C10.3717 6.83763 10.8615 6.88169 11.3219 7.03509C11.7823 7.18849 12.2007 7.447 12.5438 7.79015C12.8869 8.1333 13.1455 8.55165 13.2989 9.01205C13.4523 9.47245 13.4963 9.96225 13.4276 10.4426L14.4551 11.4701ZM10.7763 13.0939L11.8038 14.1214C11.0236 14.4003 10.1803 14.452 9.37184 14.2704C8.56343 14.0887 7.82322 13.6812 7.23734 13.0954C6.65146 12.5095 6.24399 11.7693 6.06235 10.9609C5.88072 10.1525 5.93237 9.30909 6.21132 8.52889L7.24007 9.55764C7.17131 10.038 7.21537 10.5278 7.36877 10.9882C7.52217 11.4486 7.78068 11.867 8.12383 12.2101C8.46698 12.5533 8.88533 12.8118 9.34573 12.9652C9.80613 13.1186 10.2959 13.1626 10.7763 13.0939Z" fill="#64748B"/>
<path d="M4.52087 6.83749C4.29587 7.0375 4.08004 7.24041 3.87337 7.44625C3.09708 8.22509 2.40185 9.08073 1.79837 10L2.04212 10.36C2.46087 10.96 3.07962 11.76 3.87337 12.5537C5.48462 14.165 7.68462 15.625 10.3334 15.625C11.2284 15.625 12.0709 15.4587 12.8584 15.175L13.8209 16.14C12.7211 16.6217 11.534 16.8719 10.3334 16.875C4.08337 16.875 0.333374 10 0.333374 10C0.333374 10 1.50712 7.84875 3.63462 5.9525L4.51962 6.83875L4.52087 6.83749ZM17.3909 17.9425L2.39087 2.9425L3.27587 2.0575L18.2759 17.0575L17.3909 17.9425Z" fill="#64748B"/>
</g>
</g>
<defs>
<clipPath id="clip0_4965_10152">
<rect width="20" height="20" fill="white" transform="translate(0.333374)"/>
</clipPath>
</defs>
</svg>
