<svg width="17" height="16" viewBox="0 0 17 16" fill="none" xmlns="http://www.w3.org/2000/svg">
<g id="icon / outline / eye" clip-path="url(#clip0_4965_12513)">
<g id="Vector">
<path d="M16.6667 8C16.6667 8 13.6667 2.5 8.66669 2.5C3.66669 2.5 0.666687 8 0.666687 8C0.666687 8 3.66669 13.5 8.66669 13.5C13.6667 13.5 16.6667 8 16.6667 8ZM1.83969 8C2.32247 7.26459 2.87865 6.58008 3.49969 5.957C4.78669 4.668 6.54669 3.5 8.66669 3.5C10.7867 3.5 12.5457 4.668 13.8347 5.957C14.4557 6.58008 15.0119 7.26459 15.4947 8C15.4374 8.08667 15.3724 8.18267 15.2997 8.288C14.9647 8.768 14.4697 9.408 13.8347 10.043C12.5457 11.332 10.7857 12.5 8.66669 12.5C6.54769 12.5 4.78769 11.332 3.49869 10.043C2.87765 9.41992 2.32247 8.73541 1.83969 8Z" fill="#64748B"/>
<path d="M8.66669 5.5C8.00365 5.5 7.36776 5.76339 6.89892 6.23223C6.43008 6.70107 6.16669 7.33696 6.16669 8C6.16669 8.66304 6.43008 9.29893 6.89892 9.76777C7.36776 10.2366 8.00365 10.5 8.66669 10.5C9.32973 10.5 9.96561 10.2366 10.4345 9.76777C10.9033 9.29893 11.1667 8.66304 11.1667 8C11.1667 7.33696 10.9033 6.70107 10.4345 6.23223C9.96561 5.76339 9.32973 5.5 8.66669 5.5ZM5.16669 8C5.16669 7.07174 5.53544 6.1815 6.19181 5.52513C6.84819 4.86875 7.73843 4.5 8.66669 4.5C9.59494 4.5 10.4852 4.86875 11.1416 5.52513C11.7979 6.1815 12.1667 7.07174 12.1667 8C12.1667 8.92826 11.7979 9.8185 11.1416 10.4749C10.4852 11.1313 9.59494 11.5 8.66669 11.5C7.73843 11.5 6.84819 11.1313 6.19181 10.4749C5.53544 9.8185 5.16669 8.92826 5.16669 8Z" fill="#64748B"/>
</g>
</g>
<defs>
<clipPath id="clip0_4965_12513">
<rect width="16" height="16" fill="white" transform="translate(0.666687)"/>
</clipPath>
</defs>
</svg>
