<svg width="20" height="20" viewBox="0 0 20 20" fill="none" xmlns="http://www.w3.org/2000/svg">
<g id="icon / outline / shield-lock">
<g id="Vector">
<path d="M6.67251 1.9875C5.48193 2.3154 4.2995 2.67217 3.12626 3.0575C3.01904 3.09208 2.92373 3.15614 2.85122 3.24235C2.77871 3.32856 2.73194 3.43345 2.71626 3.545C2.02376 8.74125 3.62376 12.5325 5.53251 15.03C6.3403 16.0983 7.30396 17.0392 8.39126 17.8213C8.82376 18.1262 9.20626 18.3463 9.50751 18.4875C9.65751 18.5583 9.77959 18.6075 9.87376 18.635C9.91527 18.6476 9.95741 18.658 10 18.6663C10.0422 18.658 10.0839 18.6476 10.125 18.635C10.22 18.6067 10.3425 18.5575 10.4925 18.4875C10.7925 18.3463 11.1763 18.125 11.6088 17.8213C12.6961 17.0392 13.6597 16.0983 14.4675 15.03C16.3763 12.5338 17.9763 8.74125 17.2838 3.545C17.2681 3.43345 17.2213 3.32856 17.1488 3.24235C17.0763 3.15614 16.981 3.09208 16.8738 3.0575C16.06 2.79125 14.6863 2.3575 13.3275 1.98875C11.94 1.6125 10.6638 1.33375 10 1.33375C9.33751 1.33375 8.06001 1.61125 6.67251 1.9875ZM6.34001 0.7C7.69626 0.33125 9.13751 0 10 0C10.8625 0 12.3038 0.33125 13.66 0.7C15.0475 1.075 16.4463 1.51875 17.2688 1.7875C17.6126 1.90106 17.9175 2.10933 18.1484 2.38838C18.3792 2.66742 18.5266 3.00592 18.5738 3.365C19.3188 8.96125 17.59 13.1088 15.4925 15.8525C14.6027 17.0259 13.5422 18.0595 12.3463 18.9188C11.9332 19.2168 11.4948 19.4782 11.0363 19.7C10.6863 19.865 10.31 20 10 20C9.69001 20 9.31501 19.865 8.96376 19.7C8.50518 19.4782 8.06685 19.2168 7.65376 18.9188C6.45782 18.0595 5.39731 17.0259 4.50751 15.8525C2.41001 13.1088 0.681257 8.96125 1.42626 3.365C1.47337 3.00592 1.62081 2.66742 1.85165 2.38838C2.0825 2.10933 2.38737 1.90106 2.73126 1.7875C3.92533 1.39626 5.12859 1.03366 6.34001 0.7Z" fill="#64748B"/>
<path d="M11.875 8.12493C11.8752 8.51284 11.7551 8.89126 11.5312 9.20805C11.3073 9.52483 10.9907 9.76438 10.625 9.89368L11.1063 12.3812C11.1238 12.4717 11.121 12.5649 11.0983 12.6542C11.0756 12.7435 11.0333 12.8267 10.9747 12.8977C10.916 12.9688 10.8424 13.026 10.759 13.0653C10.6757 13.1046 10.5847 13.125 10.4925 13.1249H9.5075C9.41545 13.1248 9.32458 13.1043 9.24137 13.0649C9.15816 13.0256 9.08467 12.9683 9.02616 12.8973C8.96764 12.8262 8.92555 12.7431 8.90287 12.6539C8.8802 12.5647 8.87751 12.4716 8.895 12.3812L9.375 9.89368C9.05095 9.77911 8.76463 9.57768 8.54732 9.31139C8.33001 9.0451 8.19008 8.7242 8.14281 8.38376C8.09555 8.04332 8.14277 7.69643 8.27932 7.38102C8.41587 7.0656 8.63649 6.79378 8.91707 6.59527C9.19765 6.39676 9.5274 6.27919 9.87028 6.25541C10.2132 6.23163 10.556 6.30256 10.8613 6.46044C11.1666 6.61832 11.4226 6.85708 11.6014 7.15063C11.7802 7.44418 11.8748 7.78123 11.875 8.12493Z" fill="#64748B"/>
</g>
</g>
</svg>
