<svg width="48" height="48" viewBox="0 0 48 48" fill="none" xmlns="http://www.w3.org/2000/svg">
<path d="M42.1732 28.3504C42.3959 21.643 38.9221 15.4063 33.0953 12.056C32.9143 11.9522 32.7263 11.8553 32.5384 11.7515C32.6428 11.2046 32.6985 10.6647 32.6985 10.1456C32.6985 5.37632 28.8 1.5 24.0035 1.5C19.207 1.5 15.3085 5.37632 15.3085 10.1456C15.3085 10.6786 15.3572 11.2254 15.4616 11.7584C12.4473 13.3435 9.95504 15.7385 8.24946 18.6735C6.53691 21.6222 5.69456 24.9656 5.81987 28.3504C2.33909 29.5687 0 32.8359 0 36.5045C0 41.2738 3.89848 45.1501 8.695 45.1501C10.7765 45.1501 12.7884 44.4094 14.3687 43.0597C14.5427 43.1704 14.7237 43.2812 14.9047 43.385C17.6615 44.9701 20.7942 45.8077 23.9687 45.8077C27.3798 45.8077 30.7214 44.8594 33.6313 43.0527C35.2116 44.4094 37.2235 45.157 39.305 45.157C41.7207 45.157 44.0389 44.1464 45.6818 42.3882C45.8976 42.1529 46.1065 41.9106 46.2944 41.6545C47.4083 40.1593 48 38.3804 48 36.5115C48 32.8359 45.6609 29.5687 42.1732 28.3573V28.3504ZM8.695 44.091C6.48818 44.091 4.39971 43.1427 2.94474 41.4953C4.19086 39.5018 6.33503 38.3181 8.695 38.3181C11.055 38.3181 13.1991 39.5018 14.4453 41.4953C12.9972 43.1496 10.9018 44.091 8.695 44.091ZM8.695 32.3375C10.0595 32.3375 11.1664 33.4381 11.1664 34.7948C11.1664 36.1515 10.0595 37.2521 8.695 37.2521C7.33053 37.2521 6.22364 36.1515 6.22364 34.7948C6.22364 33.4381 7.33053 32.3375 8.695 32.3375ZM12.2384 34.7948C12.2384 32.8497 10.6512 31.2715 8.695 31.2715C6.7388 31.2715 5.15156 32.8497 5.15156 34.7948C5.15156 35.8746 5.65279 36.8991 6.5021 37.5636C4.7826 38.062 3.29282 39.128 2.26251 40.5885C1.47585 39.3702 1.06512 37.9581 1.06512 36.5045C1.06512 32.3236 4.49021 28.918 8.695 28.918C12.8998 28.918 16.3249 32.3236 16.3249 36.5045C16.3249 37.9581 15.9141 39.3702 15.1275 40.5885C14.0972 39.121 12.6004 38.0551 10.8879 37.5636C11.7372 36.8991 12.2384 35.8815 12.2384 34.7948ZM15.6914 41.6476C16.8052 40.1524 17.397 38.3735 17.397 36.5045C17.397 31.7353 13.4985 27.859 8.70196 27.859C8.10326 27.859 7.48368 27.9282 6.85714 28.0666C6.78753 24.9725 7.58115 21.906 9.15446 19.1995C10.7139 16.5138 12.9903 14.2988 15.7262 12.8036C16.8888 16.3961 20.1955 18.805 24.0035 18.805C26.4191 18.805 28.7373 17.7944 30.3803 16.0362C30.5961 15.8008 30.8049 15.5586 30.9929 15.3025C31.5568 14.548 31.9884 13.7104 32.2808 12.8036C32.3017 12.8105 32.3156 12.8244 32.3295 12.8313C32.4131 12.8728 32.4966 12.9144 32.5732 12.9628C37.9823 16.0708 41.2542 21.8507 41.1429 28.0735C40.5163 27.942 39.9037 27.8728 39.305 27.8728C34.5085 27.8728 30.61 31.7491 30.61 36.5184C30.61 38.6711 31.4106 40.7269 32.8725 42.3259C27.5121 45.5377 20.836 45.607 15.4268 42.5059C15.3363 42.4574 15.2528 42.4021 15.1623 42.3467L15.1414 42.3328C15.3363 42.1183 15.5243 41.8968 15.6914 41.6683V41.6476ZM39.305 32.3375C40.6695 32.3375 41.7764 33.4381 41.7764 34.7948C41.7764 36.1515 40.6695 37.2521 39.305 37.2521C37.9405 37.2521 36.8336 36.1515 36.8336 34.7948C36.8336 33.4381 37.9405 32.3375 39.305 32.3375ZM39.305 38.3181C41.665 38.3181 43.8091 39.5018 45.0553 41.4953C43.6073 43.1496 41.5118 44.091 39.305 44.091C37.0982 44.091 35.0028 43.1427 33.5548 41.4953C34.8009 39.5018 36.945 38.3181 39.305 38.3181ZM42.8484 34.7948C42.8484 32.8497 41.2612 31.2715 39.305 31.2715C37.3488 31.2715 35.7616 32.8497 35.7616 34.7948C35.7616 35.8746 36.2628 36.8991 37.1121 37.5636C35.3926 38.062 33.9028 39.128 32.8725 40.5885C32.0859 39.3702 31.6751 37.9581 31.6751 36.5045C31.6751 32.3236 35.1002 28.918 39.305 28.918C43.5098 28.918 46.9349 32.3236 46.9349 36.5045C46.9349 37.9581 46.5242 39.3702 45.7375 40.5885C44.7072 39.121 43.2104 38.0551 41.4979 37.5636C42.3472 36.8991 42.8484 35.8815 42.8484 34.7948ZM24.0035 5.98545C25.3679 5.98545 26.4748 7.08605 26.4748 8.44276C26.4748 9.79947 25.3679 10.9001 24.0035 10.9001C22.639 10.9001 21.5321 9.79947 21.5321 8.44276C21.5321 7.08605 22.639 5.98545 24.0035 5.98545ZM24.0035 11.9661C26.3635 11.9661 28.5076 13.1497 29.7537 15.1433C28.3057 16.7976 26.2103 17.739 24.0035 17.739C21.7967 17.739 19.7082 16.7907 18.2532 15.1433C19.4993 13.1497 21.6435 11.9661 24.0035 11.9661ZM30.429 14.2365C29.3987 12.769 27.9089 11.703 26.1894 11.2116C27.0387 10.547 27.54 9.52951 27.54 8.44276C27.54 6.49768 25.9527 4.91947 23.9965 4.91947C22.0403 4.91947 20.4531 6.49768 20.4531 8.44276C20.4531 9.52259 20.9543 10.547 21.8036 11.2116C20.0841 11.7099 18.5943 12.7759 17.564 14.2365C16.7774 13.0182 16.3666 11.6061 16.3666 10.1525C16.3666 5.97161 19.7917 2.56599 23.9965 2.56599C28.2013 2.56599 31.6264 5.97161 31.6264 10.1525C31.6264 11.613 31.2157 13.0182 30.429 14.2365Z" fill="#334155"/>
</svg>
