<svg width="48" height="48" viewBox="0 0 48 48" fill="none" xmlns="http://www.w3.org/2000/svg">
<path d="M26.8875 36.2325C25.4625 37.7025 24.0225 38.9625 22.425 40.3275C22.3425 40.395 22.2975 40.4175 22.3125 40.4175C22.3125 40.4175 22.125 40.3275 21.885 39.675C21.75 39.3075 21.63 38.955 21.5025 38.595L21.4425 38.43C21.2925 37.995 21.135 37.545 20.9475 37.0425C20.7525 36.51 20.3925 36.4125 20.19 36.405H20.1675C19.4925 36.405 18.9975 37.1925 18.27 38.73L18.24 38.79C18.21 38.85 18.1875 38.9025 18.165 38.94C17.9625 39.345 17.67 39.8475 17.235 40.14C17.0025 40.2975 16.38 40.7025 15.405 39.4725C16.59 38.115 17.3325 36.6525 17.61 35.1375C17.775 34.245 17.58 33.435 17.0775 32.9025C16.2825 32.055 14.8275 31.98 13.8375 32.7225C13.0425 33.3225 12.54 34.365 12.5325 35.4525C12.5325 36.9675 13.3275 38.4 13.965 39.3675C13.455 39.87 12.8775 40.3575 12.2475 40.815C12.1275 40.905 12.045 41.0325 12.0225 41.1825C12 41.3325 12.0375 41.475 12.12 41.6025C12.225 41.745 12.3975 41.835 12.57 41.835C12.69 41.835 12.8025 41.7975 12.9 41.73C13.5225 41.28 14.1 40.8 14.625 40.2975C15.9975 41.925 17.235 41.49 17.85 41.0775C18.51 40.6425 18.9 39.9825 19.1625 39.45C19.185 39.3975 19.23 39.315 19.275 39.2175C19.6275 38.475 19.8675 38.055 20.0175 37.815C20.145 38.1675 20.2575 38.49 20.37 38.805C20.5125 39.225 20.655 39.6225 20.8125 40.0575C21.1125 40.8975 21.5025 41.37 21.9975 41.505C22.26 41.5725 22.6725 41.58 23.13 41.1825C24.75 39.795 26.2125 38.52 27.6675 37.0125C27.885 36.7875 27.8775 36.435 27.6525 36.2175C27.4275 36.0075 27.075 36.0075 26.8575 36.2325H26.8875ZM16.515 34.9425C16.29 36.1725 15.6975 37.38 14.76 38.52C14.01 37.32 13.665 36.3525 13.665 35.4675C13.665 34.74 14.0025 34.0125 14.52 33.63C14.7675 33.45 15.09 33.345 15.4125 33.345C15.7575 33.345 16.065 33.465 16.2675 33.6825C16.515 33.945 16.605 34.4175 16.515 34.95V34.9425ZM12.12 11.055C12.12 10.7475 12.375 10.4925 12.6825 10.4925H25.425C25.7325 10.4925 25.9875 10.7475 25.9875 11.055C25.9875 11.3625 25.7325 11.6175 25.425 11.6175H12.6825C12.375 11.6175 12.12 11.3625 12.12 11.055ZM35.9325 23.0025C35.9325 23.31 35.6775 23.565 35.37 23.565H12.6825C12.375 23.565 12.12 23.31 12.12 23.0025C12.12 22.695 12.375 22.44 12.6825 22.44H35.3775C35.685 22.44 35.94 22.695 35.94 23.0025H35.9325ZM41.67 10.44L31.6125 0.3825C31.3725 0.1425 31.035 0 30.69 0H9.6975C7.6575 0 6 1.6575 6 3.6975V44.3025C6 46.3425 7.6575 48 9.6975 48H38.3625C40.4025 48 42.06 46.3425 42.06 44.3025V11.3625C42.06 11.01 41.925 10.6875 41.6775 10.44H41.67ZM33.57 10.3125C32.565 10.3125 31.74 9.495 31.74 8.4825V2.1L39.9525 10.3125H33.57ZM38.355 46.8825H9.6975C8.28 46.8825 7.125 45.7275 7.125 44.31V3.6975C7.125 2.28 8.28 1.125 9.6975 1.125H30.63V8.49C30.63 10.1175 31.95 11.4375 33.5775 11.4375H40.9425V44.31C40.9425 45.7275 39.7875 46.8825 38.37 46.8825H38.355ZM35.9325 28.98C35.9325 29.2875 35.6775 29.5425 35.37 29.5425H20.04C19.7325 29.5425 19.4775 29.2875 19.4775 28.98C19.4775 28.6725 19.7325 28.4175 20.04 28.4175H35.37C35.6775 28.4175 35.9325 28.6725 35.9325 28.98ZM35.9325 17.0325C35.9325 17.34 35.6775 17.595 35.37 17.595H12.6825C12.375 17.595 12.12 17.34 12.12 17.0325C12.12 16.725 12.375 16.47 12.6825 16.47H35.3775C35.685 16.47 35.94 16.725 35.94 17.0325H35.9325Z" fill="#334155"/>
</svg>
