<svg width="48" height="48" viewBox="0 0 48 48" fill="none" xmlns="http://www.w3.org/2000/svg">
<path fill-rule="evenodd" clip-rule="evenodd" d="M43.4424 38.2767L43.4388 38.2816C42.9278 38.982 42.3544 39.6521 41.7492 40.316C37.2139 45.1956 30.815 48 24.15 48C10.9111 48 0.149979 37.2388 0.149979 24C0.149979 10.7612 10.9111 0 24.15 0C37.3888 0 48.15 10.7612 48.15 24C48.15 29.1897 46.5173 34.1256 43.4424 38.2767ZM18.1208 27.8648L19.715 27.4001L18.41 26.3732C16.1883 24.6249 14.8755 21.9274 14.8755 19.0848C14.8755 13.965 19.0301 9.81041 24.15 9.81041C29.2688 9.81041 33.4244 13.9838 33.4244 19.0848C33.4244 21.9464 32.1124 24.6244 29.89 26.3732L28.5789 27.4048L30.1823 27.8657C34.9066 29.2237 39.0021 32.1696 41.8365 36.2297L42.5667 37.2757L43.256 36.2022C45.5943 32.5603 46.8141 28.3601 46.8141 24C46.8141 11.5089 36.6411 1.33587 24.15 1.33587C11.6589 1.33587 1.48585 11.5089 1.48585 24C1.48585 28.3398 2.70547 32.56 5.04398 36.2022L5.73156 37.2732L6.46238 36.2313C9.29693 32.1901 13.3937 29.2428 18.1208 27.8648ZM41.2314 38.9084L41.6456 38.4324L41.3125 37.8965C37.5945 31.9143 31.1909 28.3593 24.15 28.3593C17.1091 28.3593 10.7055 31.9143 6.98743 37.8965L6.65279 38.4349L7.07109 38.9112C11.3909 43.8304 17.5939 46.6641 24.15 46.6641C30.7032 46.6641 36.9287 43.8523 41.2314 38.9084ZM32.0686 19.0848C32.0686 14.7127 28.5221 11.1662 24.15 11.1662C19.7778 11.1662 16.2313 14.7127 16.2313 19.0848C16.2313 23.457 19.7778 27.0035 24.15 27.0035C28.5221 27.0035 32.0686 23.457 32.0686 19.0848Z" fill="#334155"/>
</svg>
